<svg xmlns="http://www.w3.org/2000/svg" width="762" height="851" viewBox="0 0 762 851"><defs><style>.cls-1{fill:#fff;}.cls-2{fill:#006837;}</style></defs><title>alle_oel</title><g id="Layer_2" data-name="Layer 2"><path class="cls-1" d="M381,12.5A346.7,346.7,0,0,1,481.9,27.6a374.93,374.93,0,0,1,77,33.38c42.15,24.14,66.25,48.64,66.48,48.88l.3.31.33.29a284.73,284.73,0,0,1,60,75.69A328.9,328.9,0,0,1,715.93,262C728,308.39,727,343.75,727,344.09l-.43,12.41H750V504.37l-19.29,18.46-3.21,3.06-.44,4.42c-4.69,46.85-17.66,90.57-38.56,129.94A327.23,327.23,0,0,1,610,757.32c-62.87,53-144.2,82.18-229,82.18s-166.15-29.18-229-82.18A327.23,327.23,0,0,1,73.5,660.25c-20.9-39.37-33.87-83.09-38.56-129.94l-.44-4.42-3.21-3.06L12,504.37V356.5H35.42L35,344.09c0-.35-1.05-35.06,10.88-81.35a329.86,329.86,0,0,1,29.84-76.16A284.89,284.89,0,0,1,136,110.46l.33-.29.29-.3c.24-.25,24.34-24.75,66.49-48.89a374.93,374.93,0,0,1,77-33.38A346.7,346.7,0,0,1,381,12.5m0-12c-155,0-253,101-253,101-110,98-105,243-105,243H0v165l23,22c20,200,184,320,358,320s338-120,358-320l23-22v-165H739s5-145-105-243c0,0-98-101-253-101Z"/><path class="cls-1" d="M736.75,371V483.5H25.25V371h711.5m6-6H19.25V489.5h723.5V365Z"/><polygon class="cls-1" points="730 345.5 35 345.5 35 356.5 730 356.5 730 345.5 730 345.5"/><polygon class="cls-1" points="752 498.5 10 498.5 10 509.5 752 509.5 752 498.5 752 498.5"/><path class="cls-1" d="M600.1,509.5H587.59C574.7,699,386.91,700.5,381.14,700.5h-.28c-5.75,0-193.56-1.45-206.45-191H161.9s-1.65,164.73,176.53,198.72a227.41,227.41,0,0,0,85.14,0C601.75,674.23,600.1,509.5,600.1,509.5Z"/><path class="cls-1" d="M613.77,509.5h-5.62C594.77,717.36,389.26,720.94,381.25,721s-213.52-3.64-226.9-211.5h-5.62S145,712.21,381,727v0l.25,0,.25,0v0c236-14.76,232.27-217.47,232.27-217.47Z"/><path class="cls-1" d="M381,143.26a227.33,227.33,0,0,0-42.57,4C160.25,181.27,161.9,346,161.9,346h12.51c12.89-189.55,200.7-191,206.45-191h.28c5.77,0,193.56,1.46,206.45,191H600.1s1.65-164.73-176.53-198.72a227.33,227.33,0,0,0-42.57-4Z"/><path class="cls-1" d="M381.5,128.5l-.25,0-.25,0v0C145,143.29,148.73,346,148.73,346h5.62c13.38-207.86,218.89-211.44,226.9-211.5s213.52,3.64,226.9,211.5h5.62s3.72-202.71-232.27-217.47v0Z"/><path class="cls-1" d="M720.71,509.5h-5.17C697.79,821.37,391.17,827.87,381.25,828c-9.92-.13-316.54-6.63-334.29-318.5H41.79S31,800.22,381,834v0l.25,0,.25,0v0c350-33.73,339.21-324.45,339.21-324.45Z"/><path class="cls-1" d="M381,21.5h0Zm0,0Zm0,0h0Zm.11,0H381C31,55.23,41.79,346,41.79,346H47C64.71,34.13,371.33,27.63,381.25,27.5c9.92.13,316.54,6.63,334.29,318.5h5.17S732,55.23,382,21.5h-.92Zm-.09,0Zm0,0Zm0,0Zm0,0Zm0,0Zm0,0h0Zm0,0Zm0,0Zm0,0Zm0,0Zm0,0Zm0,0Z"/><polygon class="cls-1" points="35.32 509.5 17 509.5 34.5 526 35.32 509.5 35.32 509.5"/><polygon class="cls-1" points="745.32 509.5 727 509.5 727.82 526 745.32 509.5 745.32 509.5"/><polygon class="cls-1" points="165 514.5 33 514.5 33 526.5 165 526.5 165 514.5 165 514.5"/><polygon class="cls-1" points="167 532.5 34 532.5 34 542.5 167 542.5 167 532.5 167 532.5"/><polygon class="cls-1" points="171 550.5 37 550.5 37 558.5 171 558.5 171 550.5 171 550.5"/><polygon class="cls-1" points="177 568.5 40 568.5 40 574.5 177 574.5 177 568.5 177 568.5"/><polygon class="cls-1" points="184 585.5 44 585.5 44 591.5 184 591.5 184 585.5 184 585.5"/><polygon class="cls-1" points="192 603.5 49 603.5 49 607.5 192 607.5 192 603.5 192 603.5"/><polygon class="cls-1" points="203 621.5 55 621.5 55 623.5 203 623.5 203 621.5 203 621.5"/><polygon class="cls-1" points="730 514.5 598 514.5 598 526.5 730 526.5 730 514.5 730 514.5"/><polygon class="cls-1" points="729 532.5 596 532.5 596 542.5 729 542.5 729 532.5 729 532.5"/><polygon class="cls-1" points="726 550.5 592 550.5 592 558.5 726 558.5 726 550.5 726 550.5"/><polygon class="cls-1" points="723 568.5 586 568.5 586 574.5 723 574.5 723 568.5 723 568.5"/><polygon class="cls-1" points="719 585.5 579 585.5 579 591.5 719 591.5 719 585.5 719 585.5"/><polygon class="cls-1" points="714 603.5 571 603.5 571 607.5 714 607.5 714 603.5 714 603.5"/><polygon class="cls-1" points="708 621.5 560 621.5 560 623.5 708 623.5 708 621.5 708 621.5"/><polygon class="cls-1" points="730 328.5 598 328.5 598 340.5 730 340.5 730 328.5 730 328.5"/><polygon class="cls-1" points="729 312.5 596 312.5 596 322.5 729 322.5 729 312.5 729 312.5"/><polygon class="cls-1" points="726 296.5 592 296.5 592 304.5 726 304.5 726 296.5 726 296.5"/><polygon class="cls-1" points="723 280.5 586 280.5 586 286.5 723 286.5 723 280.5 723 280.5"/><polygon class="cls-1" points="719 263.5 579 263.5 579 269.5 719 269.5 719 263.5 719 263.5"/><polygon class="cls-1" points="714 247.5 571 247.5 571 251.5 714 251.5 714 247.5 714 247.5"/><polygon class="cls-1" points="708 231.5 560 231.5 560 233.5 708 233.5 708 231.5 708 231.5"/><polygon class="cls-1" points="163 328.5 31 328.5 31 340.5 163 340.5 163 328.5 163 328.5"/><polygon class="cls-1" points="165 312.5 32 312.5 32 322.5 165 322.5 165 312.5 165 312.5"/><polygon class="cls-1" points="169 296.5 35 296.5 35 304.5 169 304.5 169 296.5 169 296.5"/><polygon class="cls-1" points="175 280.5 38 280.5 38 286.5 175 286.5 175 280.5 175 280.5"/><polygon class="cls-1" points="182 263.5 42 263.5 42 269.5 182 269.5 182 263.5 182 263.5"/><polygon class="cls-1" points="190 247.5 47 247.5 47 251.5 190 251.5 190 247.5 190 247.5"/><polygon class="cls-1" points="201 231.5 53 231.5 53 233.5 201 233.5 201 231.5 201 231.5"/></g><g id="Layer_3" data-name="Layer 3"><path class="cls-1" d="M232.89,465.32H205L202.81,457H185.3l-2.16,8.34H155.43l22.87-72.1H210ZM198,438.13c-1.85-8-3.5-16.17-3.91-21.32-.41,5.15-2.06,13.28-4,21.32Z"/><path class="cls-1" d="M294.38,465.32h-57v-72.1h29.66v49h27.3Z"/><path class="cls-1" d="M357.72,465.32h-57v-72.1h29.67v49h27.29Z"/><path class="cls-1" d="M426.32,465.32H364.11v-72.1h62v20H392.43v6.18h24.1v19.68h-24.1v6.28h33.89Z"/><path class="cls-1" d="M543.94,388.07l-10.3,16.17c4.84,6,7.73,14.22,7.73,25,0,26.47-17.41,37.18-36.88,37.18a45.83,45.83,0,0,1-10-1l-3.19,5.05H464.74l10.4-16.38c-4.64-6-7.52-14.11-7.52-24.82,0-26.47,17.41-37.18,36.87-37.18a49.68,49.68,0,0,1,9.69.93l3.19-4.95Zm-31.41,41.2c0-13.08-4.33-16.07-8-16.07s-8,3-8,16.07,4.33,16.07,8,16.07S512.53,442.35,512.53,429.27Z"/><path class="cls-1" d="M604.71,465.32h-57v-72.1h29.67v49h27.29Z"/></g><g id="Layer_6" data-name="Layer 6"><path class="cls-1" d="M321.16,49.13c-.84,4.33-1.59,8.67-2.24,13,4.26,4.6,7.27,12.3,9.88,22.63,5.12,20.91,4.21,32.64-5.27,35.77a10.91,10.91,0,0,1-8-.21c-.05-.08.27,6.83.29,6.82-1.61.65-3.21,1.31-4.81,2q-.56-6.3-.85-12.67c-4.24-4.26-8.37-11.39-12.55-21.19-8.56-19.61-8.39-32.4,5-37A15.1,15.1,0,0,1,313,58.11q.51-3.55,1.1-7.13Q317.62,50,321.16,49.13Zm-9.1,16.48c-2.58-2.44-5.24-3.13-7.92-2.23-6.53,2.22-6.86,11.41.12,29.18a99.18,99.18,0,0,0,5.58,12.38A314.64,314.64,0,0,1,312.06,65.61Zm9.86,21a84.71,84.71,0,0,0-4.58-12.79,308.49,308.49,0,0,0-2,39.09c2.4,2.41,4.56,3.18,6.62,2.49C326.8,113.76,327.13,105,321.92,86.61Z"/><path class="cls-1" d="M365.92,110.74a181.54,181.54,0,0,0-20.06,2.8q-6.17-31.25-12.34-62.49,4.08-.81,8.16-1.47,4.67,28.65,9.31,57.31,7.2-1.17,14.47-1.77Z"/><path class="cls-1" d="M393.75,110.59a181.74,181.74,0,0,0-20.21-.32Q372.27,78.46,371,46.62q4.13-.16,8.26-.19.18,29,.37,58.06,7.27,0,14.54.48C394,106.84,393.88,108.72,393.75,110.59Z"/><path class="cls-1" d="M423.29,115.21a180.37,180.37,0,0,0-21.94-3.91L408.61,48a241.74,241.74,0,0,1,28.44,5c-.43,1.83-.87,3.66-1.3,5.49-6.54-1.55-13.14-2.82-19.76-3.81q-1.58,10.49-3.14,21,6.33.94,12.6,2.26-.58,2.76-1.16,5.52-6.1-1.28-12.27-2.2l-3.78,25.29q8.25,1.23,16.38,3.21Q424,112.46,423.29,115.21Z"/><path class="cls-1" d="M475.52,71.5q-6-2.59-12.16-4.87L443.2,121.27q-2.91-1.06-5.84-2l18.27-55.3c-4.12-1.36-8.28-2.61-12.45-3.74.47-1.76.95-3.51,1.43-5.27a244.87,244.87,0,0,1,33.08,11.57Q476.6,69,475.52,71.5Z"/><path class="cls-2" d="M176.55,667.1c-9.61,8.24-20.2,3.87-26.66-5.15q-1.2-1.66-2.37-3.36l-23.71,16.6q-2.69-3.84-5.28-7.79l53.25-35q3.24,4.94,6.64,9.65C184.37,650.31,185.48,659.45,176.55,667.1Zm-5.29-6c6-4.78,6.48-10.39,2.46-16-.79-1.09-1.57-2.19-2.35-3.3l-19.23,13.46c.84,1.22,1.7,2.42,2.56,3.61C159.13,665.09,165.23,666,171.26,661.15Z"/><path class="cls-2" d="M173.42,731.12q-3.51-3.14-6.95-6.37,6.39-14.64,13.61-28.72a66,66,0,0,1-5.08-5l-21.67,20.55q-3.09-3.29-6.1-6.68l47.48-42.51q3.76,4.25,7.67,8.26c6.81,7,8.93,15.89,1.61,24.27-4.94,5.59-11,6.86-16.73,5.11Q179.87,715.25,173.42,731.12ZM198,690.05c5-5.34,4.75-10.88.14-15.62-.9-.93-1.8-1.87-2.69-2.82L179,687.27c1,1,1.95,2.06,2.93,3.07C187,695.55,193,695.43,198,690.05Z"/><path class="cls-2" d="M206.33,756.66a313.18,313.18,0,0,1-25.39-19.07l40.7-49.08q9.41,7.85,19.4,14.63l-3.17,4.68q-7.27-5-14.26-10.45l-13.09,16.71q5.26,4.15,10.7,8L218,726.7q-5.53-3.94-10.92-8.18-7.89,10.08-15.79,20.15,8.92,7,18.25,13.3C208.43,753.53,207.38,755.1,206.33,756.66Z"/><path class="cls-2" d="M254.47,783.24c-2.35-1-4.69-2.1-7-3.2l14.76-31.11c2.22-4.69,4.12-8.43,6-12.38a106.09,106.09,0,0,1-8.83,11.13Q246.85,761.73,233.2,775q3.44-18.72,8.09-37a117.19,117.19,0,0,1,4.31-13.54c-2.25,3.76-4,7-6.95,11.88Q229.85,751.18,221,766q-3.35-2-6.66-4.08l34-54q3.24,2,6.52,4-4.43,15.15-8,30.65a86,86,0,0,1-5.09,16.4c2.82-4.48,6.09-8.21,10.9-13.31q10.88-11.61,21-23.76,3.36,1.61,6.76,3.11Q267.44,754.12,254.47,783.24Z"/><path class="cls-2" d="M275.13,791.52c-2.65-.95-5.29-1.95-7.93-3l23.37-59.32q3.17,1.23,6.34,2.38Z"/><path class="cls-2" d="M326.3,790.16c-1.76,9.56-10.19,14.28-21,11.58s-15.78-10.8-12.78-20q7.36-23.31,14.72-46.63,3.23,1,6.46,1.92-6.71,23.41-13.42,46.83c-1.81,6.2.73,11,6.54,12.48s10.33-1.61,11.7-7.92q5.24-23.77,10.48-47.56,3.28.7,6.58,1.34Q330.93,766.16,326.3,790.16Z"/><path class="cls-2" d="M380.56,810.36c-2.54,0-5.07-.08-7.6-.16q.57-17.19,1.15-34.38c.17-5.19.42-9.36.56-13.73a105.48,105.48,0,0,1-3.6,13.7q-5.82,17.88-12.91,35.5-4.21-18.49-7.13-37.07a120.93,120.93,0,0,1-1.39-14.1c-.55,4.34-.9,8-1.61,13.65l-4.32,34.13q-3.78-.46-7.54-1l9.51-63c2.46.37,4.91.7,7.38,1q1.9,15.63,4.73,31.24a86.76,86.76,0,0,1,1.82,17c.78-5.24,2.28-10,4.61-16.55q5.25-15,9.6-30.11c2.44.09,4.89.15,7.33.17Q380.85,778.51,380.56,810.36Z"/><path class="cls-2" d="M450.31,800.75q-2.35,2.32-4.79,4.61c-1.41-.74-2.8-1.5-4.18-2.26a15,15,0,0,1-9.19,4.59c-13.95,2-20.12-9.06-22-30.4s1.14-32.95,11.94-34.55,17.19,8.38,21.87,29.39c2.36,10.85,2.74,19.44.54,25.54C446.43,798.72,448.36,799.74,450.31,800.75Zm-14-27.09c-3.58-18.6-8-26.15-13.47-25.32s-7.19,9.32-5,28.13,6.82,26.64,13.53,25.62a7.42,7.42,0,0,0,4.49-2.1q-3.56-2.09-7-4.24,2.36-2.19,4.65-4.41,2.32,1.41,4.7,2.79C438.89,789.85,438.16,783.41,436.33,773.66Z"/><path class="cls-2" d="M491.06,776c3.54,9.06-1.22,17.5-11.9,20.85s-19.14-1-21.45-10.43l-12-47.39q3.27-.82,6.51-1.72,6.6,23.43,13.21,46.88c1.72,6.23,6.42,9,12.15,7.24s8-6.77,5.84-12.86l-16.11-46c2.13-.74,4.25-1.5,6.36-2.3Z"/><path class="cls-2" d="M540.18,769.34q-4,2.28-8.1,4.44-5.58-6.54-11-13.18-6.3,3.24-12.73,6.15,1.88,8.36,3.57,16.76c-2.72,1.2-5.45,2.35-8.19,3.47q-4.89-32.43-12.78-64,3.38-1.57,6.71-3.25Q517.61,745.45,540.18,769.34Zm-22.63-13.17q-4.09-5.17-8.1-10.41a178.35,178.35,0,0,1-11-15.69,182.62,182.62,0,0,1,5.49,18.37q1.64,6.38,3.17,12.79Q512.35,758.82,517.55,756.17Z"/><path class="cls-2" d="M572.2,748.5q-11.6,8.61-23.8,16L515.27,710q2.94-1.78,5.84-3.66l31.54,48.82q8.24-5.33,16.19-11.23Z"/><path class="cls-2" d="M586.59,737.15q-3.37,2.82-6.81,5.54l-39.44-50.1c1.83-1.45,3.65-2.92,5.44-4.43Z"/><path class="cls-2" d="M576.67,665.69c-2.6,2.95-5.27,5.82-8,8.62L610.37,715q-3.12,3.22-6.32,6.34l-40.52-41.89q-4.15,4-8.46,7.88l-3.62-4.09a253.68,253.68,0,0,0,21.15-21.22Z"/><path class="cls-2" d="M595.23,632.43q11.28,15.74,21.19,32.79l22.19,16.37q-2.75,3.75-5.58,7.39l-21.56-16.91a374.45,374.45,0,0,1-37.15-12q2.49-2.87,4.92-5.84,7.85,3,15.88,5.63c5.5,1.84,10.55,3.46,14.07,5-2.42-3-5.49-7.54-8.59-12.25s-6.35-9.33-9.65-13.88Q593.13,635.63,595.23,632.43Z"/><path class="cls-1" d="M176.55,667.1c-9.61,8.24-20.2,3.87-26.66-5.15q-1.2-1.66-2.37-3.36l-23.71,16.6q-2.69-3.84-5.28-7.79l53.25-35q3.24,4.94,6.64,9.65C184.37,650.31,185.48,659.45,176.55,667.1Zm-5.29-6c6-4.78,6.48-10.39,2.46-16-.79-1.09-1.57-2.19-2.35-3.3l-19.23,13.46c.84,1.22,1.7,2.42,2.56,3.61C159.13,665.09,165.23,666,171.26,661.15Z"/><path class="cls-1" d="M173.42,731.12q-3.51-3.14-6.95-6.37,6.39-14.64,13.61-28.72a66,66,0,0,1-5.08-5l-21.67,20.55q-3.09-3.29-6.1-6.68l47.48-42.51q3.76,4.25,7.67,8.26c6.81,7,8.93,15.89,1.61,24.27-4.94,5.59-11,6.86-16.73,5.11Q179.87,715.25,173.42,731.12ZM198,690.05c5-5.34,4.75-10.88.14-15.62-.9-.93-1.8-1.87-2.69-2.82L179,687.27c1,1,1.95,2.06,2.93,3.07C187,695.55,193,695.43,198,690.05Z"/><path class="cls-1" d="M206.33,756.66a313.18,313.18,0,0,1-25.39-19.07l40.7-49.08q9.41,7.85,19.4,14.63l-3.17,4.68q-7.27-5-14.26-10.45l-13.09,16.71q5.26,4.15,10.7,8L218,726.7q-5.53-3.94-10.92-8.18-7.89,10.08-15.79,20.15,8.92,7,18.25,13.3C208.43,753.53,207.38,755.1,206.33,756.66Z"/><path class="cls-1" d="M254.47,783.24c-2.35-1-4.69-2.1-7-3.2l14.76-31.11c2.22-4.69,4.12-8.43,6-12.38a106.09,106.09,0,0,1-8.83,11.13Q246.85,761.73,233.2,775q3.44-18.72,8.09-37a117.19,117.19,0,0,1,4.31-13.54c-2.25,3.76-4,7-6.95,11.88Q229.85,751.18,221,766q-3.35-2-6.66-4.08l34-54q3.24,2,6.52,4-4.43,15.15-8,30.65a86,86,0,0,1-5.09,16.4c2.82-4.48,6.09-8.21,10.9-13.31q10.88-11.61,21-23.76,3.36,1.61,6.76,3.11Q267.44,754.12,254.47,783.24Z"/><path class="cls-1" d="M275.13,791.52c-2.65-.95-5.29-1.95-7.93-3l23.37-59.32q3.17,1.23,6.34,2.38Z"/><path class="cls-1" d="M326.3,790.16c-1.76,9.56-10.19,14.28-21,11.58s-15.78-10.8-12.78-20q7.36-23.31,14.72-46.63,3.23,1,6.46,1.92-6.71,23.41-13.42,46.83c-1.81,6.2.73,11,6.54,12.48s10.33-1.61,11.7-7.92q5.24-23.77,10.48-47.56,3.28.7,6.58,1.34Q330.93,766.16,326.3,790.16Z"/><path class="cls-1" d="M380.56,810.36c-2.54,0-5.07-.08-7.6-.16q.57-17.19,1.15-34.38c.17-5.19.42-9.36.56-13.73a105.48,105.48,0,0,1-3.6,13.7q-5.82,17.88-12.91,35.5-4.21-18.49-7.13-37.07a120.93,120.93,0,0,1-1.39-14.1c-.55,4.34-.9,8-1.61,13.65l-4.32,34.13q-3.78-.46-7.54-1l9.51-63c2.46.37,4.91.7,7.38,1q1.9,15.63,4.73,31.24a86.76,86.76,0,0,1,1.82,17c.78-5.24,2.28-10,4.61-16.55q5.25-15,9.6-30.11c2.44.09,4.89.15,7.33.17Q380.85,778.51,380.56,810.36Z"/><path class="cls-1" d="M450.31,800.75q-2.35,2.32-4.79,4.61c-1.41-.74-2.8-1.5-4.18-2.26a15,15,0,0,1-9.19,4.59c-13.95,2-20.12-9.06-22-30.4s1.14-32.95,11.94-34.55,17.19,8.38,21.87,29.39c2.36,10.85,2.74,19.44.54,25.54C446.43,798.72,448.36,799.74,450.31,800.75Zm-14-27.09c-3.58-18.6-8-26.15-13.47-25.32s-7.19,9.32-5,28.13,6.82,26.64,13.53,25.62a7.42,7.42,0,0,0,4.49-2.1q-3.56-2.09-7-4.24,2.36-2.19,4.65-4.41,2.32,1.41,4.7,2.79C438.89,789.85,438.16,783.41,436.33,773.66Z"/><path class="cls-1" d="M491.06,776c3.54,9.06-1.22,17.5-11.9,20.85s-19.14-1-21.45-10.43l-12-47.39q3.27-.82,6.51-1.72,6.6,23.43,13.21,46.88c1.72,6.23,6.42,9,12.15,7.24s8-6.77,5.84-12.86l-16.11-46c2.13-.74,4.25-1.5,6.36-2.3Z"/><path class="cls-1" d="M540.18,769.34q-4,2.28-8.1,4.44-5.58-6.54-11-13.18-6.3,3.24-12.73,6.15,1.88,8.36,3.57,16.76c-2.72,1.2-5.45,2.35-8.19,3.47q-4.89-32.43-12.78-64,3.38-1.57,6.71-3.25Q517.61,745.45,540.18,769.34Zm-22.63-13.17q-4.09-5.17-8.1-10.41a178.35,178.35,0,0,1-11-15.69,182.62,182.62,0,0,1,5.49,18.37q1.64,6.38,3.17,12.79Q512.35,758.82,517.55,756.17Z"/><path class="cls-1" d="M572.2,748.5q-11.6,8.61-23.8,16L515.27,710q2.94-1.78,5.84-3.66l31.54,48.82q8.24-5.33,16.19-11.23Z"/><path class="cls-1" d="M586.59,737.15q-3.37,2.82-6.81,5.54l-39.44-50.1c1.83-1.45,3.65-2.92,5.44-4.43Z"/><path class="cls-1" d="M576.67,665.69c-2.6,2.95-5.27,5.82-8,8.62L610.37,715q-3.12,3.22-6.32,6.34l-40.52-41.89q-4.15,4-8.46,7.88l-3.62-4.09a253.68,253.68,0,0,0,21.15-21.22Z"/><path class="cls-1" d="M595.23,632.43q11.28,15.74,21.19,32.79l22.19,16.37q-2.75,3.75-5.58,7.39l-21.56-16.91a374.45,374.45,0,0,1-37.15-12q2.49-2.87,4.92-5.84,7.85,3,15.88,5.63c5.5,1.84,10.55,3.46,14.07,5-2.42-3-5.49-7.54-8.59-12.25s-6.35-9.33-9.65-13.88Q593.13,635.63,595.23,632.43Z"/></g></svg>
