<svg xmlns="http://www.w3.org/2000/svg" width="503" height="519" viewBox="0 0 503 519"><defs><style>.cls-1{fill:#facc6f;}.cls-2{fill:#d6d6d6;stroke:#666;stroke-miterlimit:10;stroke-width:9px;}.cls-3{fill:#ff9102;}.cls-4{fill:#ffb72f;}.cls-5{fill:#fff;}.cls-6{fill:#666;}.cls-7{fill:#4a4d54;}</style></defs><title>logo</title><g id="Layer_3" data-name="Layer 3"><path class="cls-1" d="M326.41,183.18c3.92,0,7.68-3.45,7.5-7.5a7.63,7.63,0,0,0-7.5-7.5c-3.92,0-7.68,3.45-7.5,7.5a7.63,7.63,0,0,0,7.5,7.5Z"/><path class="cls-2" d="M485.5,272C485.5,401,381,505.5,252,505.5S18.5,401,18.5,272A233,233,0,0,1,102.66,92.5H401.34A233,233,0,0,1,485.5,272Z"/><path class="cls-3" d="M452.5,269c0,120.12-89.54,217.5-200,217.5S52.5,389.12,52.5,269c0-72.66,32.76-137,83.1-176.5H369.4C419.74,132,452.5,196.34,452.5,269Z"/><path class="cls-4" d="M314,214.5C314,317,269.45,400,214.5,400S115,317,115,214.5c0-46.71,9.26-89.39,24.55-122h149.9C304.74,125.11,314,167.79,314,214.5Z"/><path class="cls-5" d="M163.8,404.22a162.27,162.27,0,0,0,40.71,34.35,6,6,0,0,0,6.05-10.36q-5.58-3.33-10.88-7.09c-.82-.59-1.64-1.18-2.45-1.78l-1.39-1-.69-.53c.65.5.71.55.19.14-1.64-1.3-3.27-2.61-4.87-4a157.28,157.28,0,0,1-18.19-18.22c-2-2.4-6.41-2.25-8.48,0a6.16,6.16,0,0,0,0,8.49Z"/><path class="cls-5" d="M38,247.43c-4.37,17.54-4.13,35.84-1.63,53.64A233.69,233.69,0,0,0,49.85,352a250.58,250.58,0,0,0,10.64,24.07,3,3,0,0,0,4.1,1.07,3.06,3.06,0,0,0,1.08-4.1A244.63,244.63,0,0,1,48.52,329.1c-4.79-16.79-7.92-34.17-8-51.66A116.08,116.08,0,0,1,43.78,249c.93-3.75-4.85-5.35-5.79-1.6Z"/><path class="cls-5" d="M111.82,90.85a89.1,89.1,0,0,1-16.28,3.8l3.19-.43a89.07,89.07,0,0,1-16.16.63l10.36,18.06a131.39,131.39,0,0,1,8.4-12.86l-1.88,2.43a48.68,48.68,0,0,1,8.35-8.62l-2.43,1.87a32.36,32.36,0,0,1,6.9-4.07l-2.87,1.21c3.52-1.44,7.26-2,10.93-2.94a41.89,41.89,0,0,0,12-5.17c6.47-4.1,11.83-9.63,17.84-14.32l-2.43,1.87a37.59,37.59,0,0,1,7.9-4.73l-2.87,1.21a28.44,28.44,0,0,1,7.06-2l-3.19.43a19.92,19.92,0,0,1,4.94,0l-3.19-.43a15.78,15.78,0,0,1,3.87,1.07l-2.87-1.21a15.31,15.31,0,0,1,2.81,1.67l-2.42-1.87a18.24,18.24,0,0,1,2.91,3L160.83,67a82.37,82.37,0,0,1,5,8.14,32,32,0,0,0,9.38,10.5c5.17,3.56,12.06,4.19,18,2.53,5.15-1.44,9.59-4.53,14.47-6.6l-2.86,1.21a48.45,48.45,0,0,1,11.95-3.21l-3.19.43A48.85,48.85,0,0,1,226,80l-3.19-.43a50.57,50.57,0,0,1,6.32,1.29,12.41,12.41,0,0,0,9.24-1.21,12.24,12.24,0,0,0,5.52-7.17c1.45-6.39-1.92-12.92-8.38-14.76a64.39,64.39,0,0,0-39.15,1.21L208,79c.51-.46,1-.9,1.58-1.33l-2.43,1.88a25.34,25.34,0,0,1,5.32-3.06l-2.86,1.21A27.28,27.28,0,0,1,215.93,76l-3.19.43a27.64,27.64,0,0,1,7,0l-3.19-.43a25.64,25.64,0,0,1,6.32,1.73L220,76.46A53.43,53.43,0,0,1,226,80a19.24,19.24,0,0,0,14.85,2.48,18,18,0,0,0,10.39-8.19c1.54-2.48,2.4-5.36,3.52-8l-1.21,2.87a15.56,15.56,0,0,1,1.93-3.45L253.58,68a11.53,11.53,0,0,1,1.9-1.86l-2.43,1.87a12.91,12.91,0,0,1,2.53-1.44l-2.86,1.21a19.68,19.68,0,0,1,4.61-1.2l-3.19.43a72.57,72.57,0,0,1,9.44-.39,72,72,0,0,0,12.6-1c9.59-1.75,16.63-8.63,24-14.38l-2.43,1.88a35.4,35.4,0,0,1,7.6-4.58l-2.86,1.21a22.06,22.06,0,0,1,5.28-1.48l-3.19.43a15.44,15.44,0,0,1,4,0l-3.19-.43a13.91,13.91,0,0,1,3,.85l-2.86-1.21a14.32,14.32,0,0,1,2.64,1.56l-2.43-1.88a15.19,15.19,0,0,1,2.46,2.48l-1.88-2.43a25.58,25.58,0,0,1,3.06,5.45l-1.21-2.87c3.52,8.39,5.42,17.95,12.62,24.2a12.68,12.68,0,0,0,6.89,3.3,11.46,11.46,0,0,0,7.66-1.42A90.57,90.57,0,0,1,349,68.58l-2.87,1.21a35.73,35.73,0,0,1,8.53-2.45l-3.19.43a26.11,26.11,0,0,1,6.37,0l-3.19-.43a15.88,15.88,0,0,1,3.83,1l-2.86-1.21a19.12,19.12,0,0,1,4.09,2.41l-2.42-1.87A20.94,20.94,0,0,1,360.65,71l-1.87-2.43a18.83,18.83,0,0,1,2.33,4l-1.21-2.87a15.08,15.08,0,0,1,1,3.61l-.43-3.19a12.21,12.21,0,0,1,0,3l.43-3.19a11.06,11.06,0,0,1-.71,2.53l1.21-2.87a11.64,11.64,0,0,1-1.21,2.08L362,69.24l-.22.29c-2,2.62-3.51,5-3.51,8.48a12.26,12.26,0,0,0,3.51,8.49A12.09,12.09,0,0,0,370.29,90c2.95-.13,6.58-1.07,8.48-3.51,2.26-2.89,4.25-5.72,5.08-9.39a25.7,25.7,0,0,0,.07-10.8A24.9,24.9,0,0,0,381,58.75a30.07,30.07,0,0,0-5.07-6.59c-3.86-3.81-9.12-7-14.52-8a38.61,38.61,0,0,0-20.25,1.88,95.25,95.25,0,0,0-18,9.51l14.54,1.88A18.15,18.15,0,0,1,335.44,55l1.87,2.43a27.76,27.76,0,0,1-3.3-6l1.21,2.87c-1.26-3-2.22-6.19-3.42-9.25-1.88-4.78-3.84-8.87-7.27-12.75-4.21-4.77-10.2-7.1-16.39-7.72a26.21,26.21,0,0,0-8.94.91,38.15,38.15,0,0,0-8.47,3.48c-5.18,2.8-9.5,7-14.13,10.55L279,37.72a37.1,37.1,0,0,1-7.5,4.62l2.87-1.21a24.58,24.58,0,0,1-5.9,1.56l3.19-.43a78,78,0,0,1-9.67.4,66.64,66.64,0,0,0-12.29,1A24.64,24.64,0,0,0,237.63,50c-3.72,3.52-5.26,8-7.16,12.64l1.21-2.87A15.69,15.69,0,0,1,230,62.83l1.87-2.43a7.29,7.29,0,0,1-1.13,1.16l2.43-1.88a6,6,0,0,1-1.13.65l2.87-1.21a6.09,6.09,0,0,1-1.09.3L237,59a7,7,0,0,1-1.29,0l3.19.43a9,9,0,0,1-2.09-.59l2.87,1.21a44.7,44.7,0,0,1-4.7-2.83,39.53,39.53,0,0,0-6.74-3.1,34.53,34.53,0,0,0-12.25-2A37.67,37.67,0,0,0,191,62a12.42,12.42,0,0,0-1.87,14.54,14.26,14.26,0,0,0,4.3,4.31,12.07,12.07,0,0,0,9.25,1.21,53.52,53.52,0,0,1,11.43-2.82l-3.19.43a54.55,54.55,0,0,1,13.81,0l-3.19-.43a55.35,55.35,0,0,1,7.53,1.58l6.38-23.14a61.4,61.4,0,0,0-26.8-1,47.42,47.42,0,0,0-10.24,3c-2.49,1-4.93,2.09-7.32,3.35-1.6.86-3.2,1.72-4.87,2.44l2.86-1.21A17.84,17.84,0,0,1,185,65.4l3.19-.43a11.49,11.49,0,0,1-2.81,0l3.19.43a11.38,11.38,0,0,1-2.34-.68l2.87,1.21a11.07,11.07,0,0,1-2.14-1.29l2.43,1.87A15.72,15.72,0,0,1,186.91,64l1.88,2.42c-2.2-2.87-3.72-6.18-5.64-9.23a38.42,38.42,0,0,0-4.93-6.42,27.08,27.08,0,0,0-9.56-6c-5.63-2.3-12.34-2-18.12-.48A41.65,41.65,0,0,0,136,51.31c-5,3.8-9.54,8.11-14.48,12L124,61.4a39.74,39.74,0,0,1-8.53,5.18l2.87-1.21c-4.68,1.9-9.78,2.24-14.48,4a46.92,46.92,0,0,0-14.94,9.1C82,84.69,76.89,92.88,72.2,100.8a12.1,12.1,0,0,0,0,12.11,12.3,12.3,0,0,0,10.37,5.94A97.26,97.26,0,0,0,118.2,114a12.64,12.64,0,0,0,7.17-5.51,12,12,0,0,0-4.3-16.42c-2.77-1.46-6.18-2.23-9.25-1.21Z"/><path class="cls-5" d="M368.1,92.15a12,12,0,0,0,12-12c-.29-6.5-5.27-12-12-12a12.38,12.38,0,0,0-8.49,3.52,12.17,12.17,0,0,0-3.51,8.48c.29,6.51,5.27,12,12,12Z"/><path class="cls-5" d="M383.66,89a25.78,25.78,0,0,1,4.77-2.7l-2.87,1.21A26.77,26.77,0,0,1,392,85.73l-3.19.43a33.61,33.61,0,0,1,8.62.08l-3.19-.43a48.78,48.78,0,0,1,11.91,3.42L403.3,88a65.76,65.76,0,0,1,14.12,8.38L415,94.52a34.91,34.91,0,0,1,5.92,5.67L419,97.76a19,19,0,0,1,2.18,3.61L420,98.51a14.94,14.94,0,0,1,.91,3.08l-.43-3.19a10.78,10.78,0,0,1,0,2.78L420.9,98a12,12,0,0,1-.77,2.71l1.21-2.87a11.48,11.48,0,0,1-1.43,2.38l1.88-2.43a10.84,10.84,0,0,1-1.35,1.36l2.43-1.87a9.26,9.26,0,0,1-1.59,1L424.15,97a8,8,0,0,1-1.78.5l3.19-.43a7.82,7.82,0,0,1-1.53,0l3.19.43a11.19,11.19,0,0,1-2.42-.7L427.66,98c-4.62-2-8.71-4-13.9-3.88a27.34,27.34,0,0,0-12.92,3.65c-7.87,4.56-13.3,13.1-13.25,22.29l12-12h-.31l3.19.42a1.76,1.76,0,0,1-.56-.13l2.86,1.21a1.72,1.72,0,0,1-.47-.28l2.43,1.88a2.52,2.52,0,0,1-.4-.4l1.88,2.43a4.37,4.37,0,0,1-.43-.76l1.21,2.86a5.38,5.38,0,0,1-.22-.9l.43,3.19a6.15,6.15,0,0,1,0-1l-.43,3.19a4.66,4.66,0,0,1,.33-1.23l-1.21,2.86a3.65,3.65,0,0,1,.32-.54l-1.87,2.43a4.22,4.22,0,0,1,.78-.74l-2.43,1.87a7.07,7.07,0,0,1,1.15-.62L403,125.09a10.13,10.13,0,0,1,1.71-.41l-3.19.43a19.57,19.57,0,0,1,4.12.11l3.19-.43a9,9,0,0,0,4.08-2.15,11.45,11.45,0,0,0,4.3-6.23c1.15-5-.7-11-5.51-13.56a16.35,16.35,0,0,0-12.72-1.43c-4.38,1.36-7.59,4.29-10.2,8-3.48,4.9-3.41,10.66-4.07,16.36l.43-3.19a15.18,15.18,0,0,1-.91,3.7l1.21-2.87a10.33,10.33,0,0,1-.94,1.65l1.88-2.43a10.15,10.15,0,0,1-1.6,1.61l2.43-1.88a13,13,0,0,1-2.37,1.37l2.87-1.21a32.87,32.87,0,0,1-8.13,2l3.19-.43a53.05,53.05,0,0,1-13.56,0l3.19.43a53.21,53.21,0,0,1-13.1-3.51l2.87,1.21c-6.07-2.56-11.21-6.69-17.36-9.09-7.43-2.91-15.25-1.5-22.87-.46l3.19-.43a54.9,54.9,0,0,1-14.6,0l3.19.43c-12.83-1.82-24.74-7.21-37.24-10.35-14.16-3.54-29.88-3.88-42.51,4.53-11.2,7.45-18.33,19.42-21.16,32.45-2.93,13.53-2,27.17,1.37,40.52,4.11,16.22,11,31.7,13.36,48.36l-.42-3.19c.48,3.6,1,7.4.52,11l.43-3.19a10.73,10.73,0,0,1-.63,2.3l1.21-2.87a10.64,10.64,0,0,1-.69,1.24l1.87-2.43a8.33,8.33,0,0,1-1.34,1.38l2.43-1.88a13.19,13.19,0,0,1-2.54,1.42l2.87-1.21c-2.78,1.14-5.65,2.09-8.48,3.11s-5.69,2.43-8.63,2.88l3.19-.43a5.06,5.06,0,0,1-1,0l3.19.43a3.47,3.47,0,0,1-1-.27l2.87,1.21a3.52,3.52,0,0,1-.72-.43l2.43,1.87a6.72,6.72,0,0,1-.86-.91l1.88,2.43a16.71,16.71,0,0,1-1.47-2.89l1.21,2.86a57.38,57.38,0,0,1-3.69-14l.43,3.19c-1.64-12.42-.12-25,1.09-37.37q2-20.52,4.22-41,1.25-11.53,2.55-23.06h-24q.56,37.79,4.67,75.4c.88,8,1.9,16,3,24l23.15-6.38c-.36-1.73-.65-3.47-.89-5.22l.43,3.19c-1.57-12.23-.31-24.55.78-36.77,1.15-12.76,1.67-25.35-.48-38-3.95-23.36-21.59-45.34-46.53-46.63-7.29-.37-14.69,1.38-21.62,3.48-5.88,1.78-11.72,3.95-17.83,4.83l3.19-.43a40.25,40.25,0,0,1-10.63,0l3.19.43a29.89,29.89,0,0,1-7.25-1.94l2.87,1.21a21.62,21.62,0,0,1-4.56-2.65l2.43,1.88a18.37,18.37,0,0,1-2.9-2.88l1.88,2.43a17.08,17.08,0,0,1-2.12-3.62v12.11l6.22-14.48c1.26-3,2.26-6,1.21-9.25a12.44,12.44,0,0,0-4.3-6.23,12.06,12.06,0,0,0-15.76.93,4.53,4.53,0,0,1-.62.54l2.43-1.87a6.56,6.56,0,0,1-1.08.57l2.87-1.21a7.26,7.26,0,0,1-1.2.3l3.19-.43a7.22,7.22,0,0,1-1.23,0l3.19.43a6.52,6.52,0,0,1-1.57-.43l2.86,1.21a4.92,4.92,0,0,1-.7-.41l2.43,1.87-.33-.25v17a41,41,0,0,1,5-4.61l-2.43,1.87a43.34,43.34,0,0,1,9.34-5.48l-2.87,1.21A46,46,0,0,1,153.13,91l-3.19.43a43.91,43.91,0,0,1,11.28,0L158,91a36.43,36.43,0,0,1,8.83,2.28L164,92a10.56,10.56,0,0,1,2.06,1.2l-2.43-1.87a6.76,6.76,0,0,1,1,1L162.72,90a6.64,6.64,0,0,1,.57,1l-1.21-2.86a5.62,5.62,0,0,1,.28,1.07L161.93,86a8,8,0,0,1,0,1.09l.42-3.19a6.48,6.48,0,0,1-.37,1.44l1.21-2.86A10.19,10.19,0,0,1,162,84.61l1.87-2.43a16.23,16.23,0,0,1-2.53,2.51l2.43-1.87a20.55,20.55,0,0,1-4.26,2.53l2.87-1.21a124.15,124.15,0,0,1-25.45,7.64l6.38,23.14q25.1-6,50.68-9.42l-3.19.42a517.23,517.23,0,0,1,53.76-4.34c5.61-.16,9.76-3.67,11.57-8.81.19-.53.39-1.06.61-1.58l-1.21,2.86a25.64,25.64,0,0,1,3.15-5.31l-1.88,2.43a31.42,31.42,0,0,1,5.3-5.2l-2.43,1.87a54.4,54.4,0,0,1,12.08-6.75l-2.87,1.21c3.59-1.49,7.26-2.76,11-3.93a89.56,89.56,0,0,1,14.94-3.77l-3.19.43a34.61,34.61,0,0,1,8.63,0l-3.2-.43a23,23,0,0,1,5.65,1.58l-2.86-1.21a22.92,22.92,0,0,1,4.58,2.69l-2.43-1.88a20.27,20.27,0,0,1,3.38,3.36l-1.88-2.43a17.08,17.08,0,0,1,1.94,3.27l-1.21-2.87a15.57,15.57,0,0,1,1,3.67l-.43-3.19c0,.43.07.86.08,1.29l23.57-3.19a68.52,68.52,0,0,0-10.76-23.21L301.2,68.86C324,85.72,352.14,93.65,379.63,98.92c7.68,1.47,15.38,2.76,23.09,4L399.85,81A133.43,133.43,0,0,0,381.3,95.25q-3.75,3.45-7.18,7.21c-2.21,2.43-4.12,5.41-6.72,7.45l2.43-1.88a10.42,10.42,0,0,1-1.16.69l2.86-1.21a7.14,7.14,0,0,1-1.43.43l3.19-.43a10.33,10.33,0,0,1-2.08,0l3.19.43a51.32,51.32,0,0,1-7-1.9q-3.62-1.08-7.26-2.07-7.43-2-14.94-3.69c-10.79-2.39-21.68-4.15-32.64-5.53a322.39,322.39,0,0,0-60.86-1.88c-5.59.36-11.16.93-16.74,1.5a77.21,77.21,0,0,1-17.19.31l3.19.43a43.05,43.05,0,0,1-5-1l2.87,21.93q4.41-2.26,9-4.21l-2.87,1.21a147.75,147.75,0,0,1,37.74-10.11l-3.19.43c18.57-2.45,37.4-1.82,55.92.67l-3.19-.43A351.47,351.47,0,0,1,366,115.67c6,1.81,13.34-2.17,14.76-8.38a12.29,12.29,0,0,0-8.38-14.77L338.26,81.24c-11.24-3.71-22.42-7.75-33.78-11A69.8,69.8,0,0,0,282.93,67a12.58,12.58,0,0,0-8.49,3.52A12.15,12.15,0,0,0,270.93,79c.28,6.32,5.28,12.24,12,12a46.23,46.23,0,0,1,7.53.37L287.27,91c10.4,1.41,20.39,5.41,30.31,8.68l30.93,10.22L366,115.67l6.38-23.15a353.48,353.48,0,0,0-65.17-13.46c-21.7-2.25-43.83-1.58-65.15,3.28a150.63,150.63,0,0,0-35.37,13,11.68,11.68,0,0,0-5.73,12,12,12,0,0,0,8.59,10c14,3.77,28.57.48,42.73-.4a321.13,321.13,0,0,1,40.33,0q11.46.74,22.83,2.26l-3.19-.43a324.46,324.46,0,0,1,37.58,7.38q4.78,1.23,9.52,2.62a69.51,69.51,0,0,0,10.24,2.6A18.54,18.54,0,0,0,385.41,126c2-2,3.63-4.29,5.5-6.35A115.69,115.69,0,0,1,405.63,106l-2.43,1.88q4.24-3.27,8.77-6.14a12.1,12.1,0,0,0,5.72-12,11.33,11.33,0,0,0-2.36-5.68c-1.46-1.89-3.78-3.89-6.23-4.3-19.07-3.15-38.23-6.4-56.69-12.26Q344.68,65.11,337.2,62l2.86,1.21a131.29,131.29,0,0,1-26.75-15l-2.86-1.21a9.08,9.08,0,0,0-4.79-.22,11.4,11.4,0,0,0-6.89,3.3,14.23,14.23,0,0,0-3.09,5.3c-.84,2.6-.44,7,1.21,9.24a60.2,60.2,0,0,1,6.65,11.68l-1.21-2.87A60.47,60.47,0,0,1,305.24,82a12,12,0,0,0,13.17,8.6c5.69-.77,10.6-5.79,10.4-11.79-.31-9.71-5.75-17.78-13.78-23a30.39,30.39,0,0,0-10.64-4.3,48.9,48.9,0,0,0-16.59,0c-6.94,1-13.77,3.33-20.36,5.7-6.27,2.25-12.69,4.82-18.2,8.63a44,44,0,0,0-8.91,7.69A40,40,0,0,0,233,86.39l11.57-8.81a534,534,0,0,0-84.77,9.29q-11.47,2.19-22.86,4.91c-6.11,1.45-10.33,8.74-8.38,14.76a12.17,12.17,0,0,0,5.51,7.17,13.46,13.46,0,0,0,9.25,1.21,122.68,122.68,0,0,0,23.31-6.76c4.88-2,9.25-3.94,13.06-7.7,4.77-4.71,7.11-10.95,5.84-17.61-2.22-11.64-15.71-14.6-25.63-15.62a51.66,51.66,0,0,0-21.71,2.65A54.14,54.14,0,0,0,115.8,84.12a12.37,12.37,0,0,0-3.51,8.48c.13,3,1.07,6.57,3.51,8.49a19.94,19.94,0,0,0,6.7,3.91,16.41,16.41,0,0,0,5.21.73,17.44,17.44,0,0,0,11.79-5L120.65,86.22l-4.06,9.47-1.92,4.46c-.48,1.13-1.07,2.26-1.45,3.43a12.54,12.54,0,0,0,0,6.38,22.29,22.29,0,0,0,1.89,4.27,28.37,28.37,0,0,0,13,12,44.69,44.69,0,0,0,18.38,4,63.51,63.51,0,0,0,17.88-2.91c6.78-2,13.44-4.47,20.47-5.47l-3.19.43a36.79,36.79,0,0,1,9.2-.1l-3.19-.43a31.31,31.31,0,0,1,7.6,2.05l-2.87-1.21a36,36,0,0,1,7.89,4.66l-2.43-1.88a43.13,43.13,0,0,1,7.21,7.27l-1.88-2.43A48.86,48.86,0,0,1,209.54,141l-1.21-2.87a62.63,62.63,0,0,1,3.91,15l-.43-3.19c2.62,19.45-2,38.82-1.82,58.28a104.08,104.08,0,0,0,2.06,19.53A12,12,0,0,0,234,230.63l1.21-2.86a12.12,12.12,0,0,0,0-6.38c-.09-.6-.17-1.21-.25-1.81l.43,3.19q-4.89-36.56-6.4-73.45-.43-10.45-.58-20.93a12.44,12.44,0,0,0-3.51-8.48,12,12,0,0,0-17,0L206,122.33a12,12,0,0,0-1.64,6.06q-2.78,24.57-5.28,49.17c-.81,8-1.62,15.94-2.36,23.92a152.27,152.27,0,0,0-.81,21.88,73.61,73.61,0,0,0,5.31,25.09,21.57,21.57,0,0,0,4.21,7.08,15.44,15.44,0,0,0,11.82,4.79c4.82-.25,9.37-2.42,13.84-4,5-1.82,10.15-3.34,14.29-6.88,4.57-3.9,6.33-10,6.35-15.85a86.09,86.09,0,0,0-1.36-13.39c-.57-3.61-1.35-7.18-2.26-10.72-4-15.67-10.88-30.75-13.05-46.88l.43,3.19a71.13,71.13,0,0,1,0-18.61l-.43,3.19a55.82,55.82,0,0,1,3.62-13.68l-1.21,2.86a42,42,0,0,1,5.2-9.08l-1.87,2.43a33.9,33.9,0,0,1,5.91-5.94l-2.43,1.87a32.19,32.19,0,0,1,6.81-4L248.27,126a34.82,34.82,0,0,1,8.62-2.33l-3.19.43a44.94,44.94,0,0,1,11.47.15l-3.19-.43c8.24,1.15,16.15,3.89,24,6.45,8.93,2.91,17.85,5.4,27.25,6.24,6,.53,11.85-.37,17.82-1.18l-3.19.43a36.58,36.58,0,0,1,9.46-.32l-3.19-.43a19.27,19.27,0,0,1,4.22,1.16L335.53,135c4.49,1.95,8.35,5.1,12.81,7.15a63.93,63.93,0,0,0,33.36,6c6.66-.76,13.34-1.84,18.8-6a20.19,20.19,0,0,0,7.41-11.29c.82-3.44.83-7,1.26-10.5l-.43,3.19a12.18,12.18,0,0,1,.63-2.6l-1.21,2.86a11.8,11.8,0,0,1,1.31-2.29l-1.88,2.43a9.8,9.8,0,0,1,1.49-1.53l-2.43,1.87a7.85,7.85,0,0,1,1.36-.83l-2.87,1.21a7.06,7.06,0,0,1,1.08-.33l-3.19.43a5.15,5.15,0,0,1,1.11,0l-3.19-.42a4.92,4.92,0,0,1,1.1.32l-2.87-1.21.36.19,6.06-22.36c-8.33-.9-17,2.65-19.71,11.16-3,9.44,3.66,19.52,13.7,19.72a12.15,12.15,0,0,0,12-12,12.9,12.9,0,0,1,.12-2l-.43,3.19a14,14,0,0,1,.85-3l-1.21,2.87a15.64,15.64,0,0,1,1.77-3l-1.88,2.43a17,17,0,0,1,2.78-2.78l-2.43,1.88a17.21,17.21,0,0,1,3.74-2.17L412,118.79a16,16,0,0,1,3.38-.92l-3.19.42a13.9,13.9,0,0,1,3.47,0l-3.19-.43a12.91,12.91,0,0,1,3.12.87l-2.86-1.21a48.3,48.3,0,0,0,7.09,3,19.16,19.16,0,0,0,9.63.07,20.13,20.13,0,0,0,12-9.52A22.92,22.92,0,0,0,444,95c-.93-4.83-3.74-9.06-6.9-12.71a54.07,54.07,0,0,0-9.3-7.91,64.94,64.94,0,0,0-8.21-5.1,64,64,0,0,0-23.55-7.22c-8.37-.83-17.63,1.23-24.51,6.17-2.61,1.87-4.64,4-5.52,7.17a12.3,12.3,0,0,0,1.21,9.25,12.08,12.08,0,0,0,7.17,5.51c3,.68,6.66.65,9.25-1.21Z"/><path class="cls-5" d="M358.29,84.53A12.34,12.34,0,0,0,366.77,81a12.18,12.18,0,0,0,3.52-8.48c-.29-6.51-5.27-12-12-12A12.37,12.37,0,0,0,349.8,64a12.18,12.18,0,0,0-3.51,8.49c.29,6.5,5.27,12,12,12Z"/><path class="cls-6" d="M123,57.22A71,71,0,0,0,77,81.14c-6.25,7.27-12.43,16.6-12.24,26.57a21.06,21.06,0,0,0,4.89,13.22c3.55,4.25,8.81,5.57,14.07,6.12a94,94,0,0,0,35.69-3.37A4.5,4.5,0,1,0,117,115a83.16,83.16,0,0,1-28.15,3.42c-1.1,0-2.2-.12-3.3-.2l-1.85-.17c-.22,0-.44-.06-.66-.07h.09l-.44-.06A12,12,0,0,1,77.34,116c-.53-.34.53.51.09.06-.12-.12-.26-.23-.39-.35-.34-.32-.65-.66-1-1-.16-.16-.46-.66,0,.09-.1-.14-.21-.28-.31-.43-.29-.44-.56-.89-.81-1.36l-.32-.63c0-.09-.27-.64-.06-.12s-.21-.62-.27-.8c-.14-.46-.27-.92-.37-1.38-.06-.24-.1-.47-.15-.71-.19-.86,0,.52,0,0a21.16,21.16,0,0,1-.09-2.76c0-.22,0-.44,0-.66s.1-1,0-.49,0-.23,0-.27c.08-.43.16-.86.26-1.28a25,25,0,0,1,.87-3c.1-.28.21-.55.31-.83,0-.11.33-.79,0-.15.23-.54.49-1.08.75-1.61a49.62,49.62,0,0,1,3.33-5.68c.53-.79,1.07-1.57,1.64-2.33l.45-.61c0-.06.43-.56.11-.15s.16-.19.24-.29l.6-.74a64.67,64.67,0,0,1,8.27-8.36c.68-.57,1.37-1.13,2.07-1.67-.78.6.45-.33.61-.44.4-.3.82-.6,1.23-.89C96.25,76,97.91,75,99.61,74a66.15,66.15,0,0,1,5.93-3c.26-.12,1.53-.66.66-.3l1.59-.64c1-.39,2-.75,3-1.09,2-.67,4.12-1.25,6.22-1.72,1.12-.25,2.24-.46,3.36-.65l1.5-.23c-.94.14-.26,0-.06,0l1.13-.13c2.33-.25,4.62-1.89,4.5-4.5-.1-2.22-2-4.77-4.5-4.5Z"/><path class="cls-6" d="M115.74,122.22A36,36,0,0,0,132.19,136a36.56,36.56,0,0,0,22.19,1.73c7.5-1.61,14.43-5,21.64-7.57,1.82-.64,3.67-1.24,5.54-1.71.92-.23,1.86-.44,2.8-.58-.62.09.51,0,.69,0a17,17,0,0,1,1.89,0c.28,0,1.36.2.58,0,.36.08.72.14,1.07.24a12.3,12.3,0,0,1,1.22.37l.51.19c-.36-.13-.51-.23-.08,0a20.63,20.63,0,0,1,1.89,1.09c.21.14.4.29.6.43,0,0-.56-.48-.18-.14s.65.55,1,.85.61.6.91.92l.37.41c.07.09.73.88.35.41s.06.08.1.14.29.4.43.61c.24.36.47.73.69,1.1s.48.87.7,1.31c.09.19.51,1.2.27.58a27.06,27.06,0,0,1,.95,2.93c.28,1.06.48,2.14.66,3.23.08.53,0,0,0-.1l.09.88c.06.59.1,1.18.13,1.77a59.22,59.22,0,0,1-.12,6.66,4.53,4.53,0,0,0,4.5,4.5,4.61,4.61,0,0,0,4.5-4.5c.54-7.87-.15-16.54-4.79-23.21a23,23,0,0,0-8.29-7.56,20.89,20.89,0,0,0-13-1.74c-7.76,1.21-15,5-22.3,7.61-1.84.65-3.7,1.25-5.59,1.74-.83.22-1.67.42-2.51.59-.49.11-1,.2-1.48.28l-.64.1c-.72.13.65-.05-.08,0a36.87,36.87,0,0,1-5.56.17l-1.13-.09c-.38,0-1.1-.17-.3,0-.87-.16-1.73-.31-2.59-.51s-1.83-.49-2.72-.8c-.42-.14-.83-.29-1.25-.45-.79-.29-.13,0,0,0l-.69-.31a32.47,32.47,0,0,1-4.93-2.81c-.18-.13-1.09-.8-.76-.54s-.55-.45-.72-.6c-.72-.61-1.41-1.25-2.08-1.93s-1.28-1.38-1.88-2.11c-.05,0-.43-.55-.12-.14s-.33-.46-.32-.46c-.29-.41-.57-.83-.84-1.25a4.5,4.5,0,1,0-7.77,4.54Z"/><path class="cls-6" d="M199,150.41a281,281,0,0,0-7.46,71,153.8,153.8,0,0,0,1,16.48c.71,5.33,1.93,10.6,4.67,15.29,5,8.63,14.68,13.31,24.53,13.27a33.07,33.07,0,0,0,25-12.13c6.87-8.23,10.25-18.51,10.57-29.17.35-11.77-2.94-23.18-7.05-34.08-2-5.31-4.12-10.57-5.88-16-.88-2.68-1.68-5.4-2.3-8.16-.26-1.12-.48-2.25-.68-3.38-.1-.6-.19-1.2-.28-1.81.12.87,0,.16,0,0,0-.4-.09-.81-.13-1.21a51,51,0,0,1-.19-7.52c0-.6.07-1.21.13-1.81,0-.24.2-1.77.07-.8a37,37,0,0,1,.76-3.91,32.77,32.77,0,0,1,1-3.41c.09-.25.19-.5.28-.74s.35-.79,0,0c.28-.61.55-1.21.86-1.79a29.12,29.12,0,0,1,1.84-3.08l.42-.6c.61-.88-.46.48,0,0s.71-.85,1.09-1.25a22.31,22.31,0,0,1,2.07-1.94s.91-.69.33-.27.32-.22.36-.25c.45-.32.92-.62,1.4-.91.86-.53,1.76-1,2.66-1.42.2-.1.79-.32-.16.05l.63-.24c.51-.2,1-.38,1.57-.54a22.12,22.12,0,0,1,2.89-.7,2.68,2.68,0,0,1,.64-.11c-1-.1-.44.05-.06,0,.54,0,1.08-.08,1.62-.1s2.24-.23,2.73.12l-.57-.08.48.08.78.15c.51.11,1,.25,1.53.4a3.65,3.65,0,0,1,1.2.43c-.6-.56-.47-.23-.06,0l.72.36c.38.2.75.42,1.11.65.18.12.35.25.54.36.93.59-.74-.61.13.1,1.82,1.48,4.6,1.91,6.36,0,1.51-1.65,1.95-4.78,0-6.37a22.7,22.7,0,0,0-13-5.14,27.92,27.92,0,0,0-13.3,2.66c-8.91,4-14.76,12.41-16.94,21.77-2.42,10.4-.88,21.22,2.26,31.29,3.36,10.75,8.33,21,11.07,31.92.32,1.29.61,2.58.87,3.88.14.69.27,1.38.38,2.07.07.39.13.77.19,1.16,0,.15.21,1.44.1.65a60,60,0,0,1,.52,8.36c0,1.31-.07,2.63-.18,3.94-.06.69-.12,1.38-.21,2.07.09-.7,0,.08,0,.18-.08.46-.15.92-.24,1.38a42.32,42.32,0,0,1-1.85,6.81c-.08.23-.17.47-.26.7,0,0-.45,1.14-.19.5s-.22.49-.22.49c-.1.23-.21.45-.31.68q-.72,1.52-1.56,3c-.56,1-1.17,1.9-1.81,2.81l-.43.6c-.69,1,.38-.44-.09.12s-.77,1-1.18,1.42c-.69.78-1.41,1.54-2.17,2.25-.41.38-.82.75-1.24,1.1l-.7.59c.47-.4.24-.18-.11.08a30,30,0,0,1-2.61,1.71c-.53.31-1.07.6-1.62.88l-.66.32c-.23.11-1.25.52-.22.12-.92.35-1.85.68-2.8.94-.5.14-1,.26-1.52.37-.26.06-1.5.47-1.72.31,0,0,1.12-.12.16,0l-.7.06c-.52,0-1,.07-1.56.08a26.1,26.1,0,0,1-3.31-.12,5.2,5.2,0,0,1-.69-.08c1.05.24.27,0,0,0-.51-.09-1-.19-1.53-.31a25.9,25.9,0,0,1-3-.88l-.64-.25c1,.36.22.1,0,0-.46-.22-.92-.44-1.38-.69a25,25,0,0,1-2.59-1.63c-.9-.63.48.44,0,0l-.65-.56c-.34-.3-.67-.62-1-.94s-.71-.76-1-1.15c-.07-.09-.52-.67-.22-.27s-.39-.57-.47-.69a23.73,23.73,0,0,1-1.68-2.94l-.33-.73c.36.8,0,0-.08-.21-.25-.63-.47-1.26-.67-1.9-.34-1.09-.63-2.2-.88-3.32-.14-.66-.27-1.33-.39-2,0-.27-.09-.54-.13-.81s-.2-1.41-.07-.43c-.32-2.46-.5-4.93-.63-7.41a272.78,272.78,0,0,1,.29-34.9q.32-4.44.78-8.88c.13-1.27.27-2.55.43-3.83.09-.79.19-1.59.29-2.39l.12-.95c.12-.91,0,.28.1-.72.81-5.72,1.77-11.42,2.92-17.09.57-2.83,1.2-5.65,1.86-8.47a4.5,4.5,0,0,0-8.68-2.39Z"/><path class="cls-6" d="M274.87,132.92a96.18,96.18,0,0,1,13.07,2.88c2.1.61,4.18,1.31,6.24,2.07,1,.38,2.05.78,3.07,1.19l.65.27c-.63-.26.07,0,.16.08.55.24,1.11.47,1.66.72,7.69,3.37,16,6.83,24.46,4.17a17,17,0,0,0,10.25-8.12l-8.23-1.08c4.05,14.12,20.43,17.28,33,19,9.18,1.26,18.33,2.09,27.54.68a41.36,41.36,0,0,0,20.83-9.4,29.68,29.68,0,0,0,10.74-21.3,4.5,4.5,0,0,0-9,0c0,.36,0,.72-.06,1.07,0,.18,0,.35,0,.53,0,.55.05-.32.05-.32a6.36,6.36,0,0,1-.49,2.4c-.18.68-.39,1.35-.63,2-.14.39-.4.93-.07.22-.17.37-.33.74-.51,1.11a31,31,0,0,1-2.41,3.88c-.28.42.14-.17.17-.2l-.34.41-.69.82c-.56.62-1.14,1.23-1.75,1.81s-1.06,1-1.61,1.44c-.13.11-.94.76-.54.45s-.06,0-.12.08l-.59.43a35.47,35.47,0,0,1-4,2.47c-.65.34-1.31.65-2,1s.56-.2-.26.11l-1.18.44a41.87,41.87,0,0,1-5.37,1.48c-.91.18-1.82.33-2.74.48-.53.09-.05,0,0,0l-.92.11-1.61.15q-2.91.23-5.81.19a110.14,110.14,0,0,1-12.17-.89l-1.4-.18-.67-.09c-1-.13-2-.28-3-.42-1.49-.22-3-.45-4.45-.72a58.92,58.92,0,0,1-8.38-2.17l-1.1-.4-.47-.18c-.8-.31.51.24,0,0-.7-.33-1.39-.64-2.07-1s-1.31-.72-1.94-1.12l-.91-.62c-.13-.09-.25-.19-.38-.27-.45-.31.68.58.06,0s-1.07-.94-1.57-1.46c-.24-.26-.45-.55-.7-.8s.25.33.23.32a2.18,2.18,0,0,1-.35-.49,17.07,17.07,0,0,1-1.16-2c-.05-.1-.2-.32-.19-.42,0,.19.29.8.09.2-.13-.41-.27-.81-.39-1.22-1-3.54-6.42-4.63-8.22-1.07-.16.3-.31.6-.49.89s-.26.37-.38.56c0-.05.54-.59.2-.25-.53.5-1,1-1.55,1.51.81-.71-.07,0-.32.17a9.5,9.5,0,0,1-.88.5c-.24.13-1.34.56-.32.19-.38.14-.75.29-1.13.41a21.32,21.32,0,0,1-2.2.53c-.87.18.7,0-.19,0-.41,0-.82.07-1.22.08-.76,0-1.5,0-2.26-.07,0,0-.61-.06-.19,0l-.28,0c-.59-.1-1.17-.22-1.75-.35a39.58,39.58,0,0,1-5.53-1.78l-1.46-.59c-.48-.2-.06,0,0,0l-.62-.27-2.89-1.27A111.6,111.6,0,0,0,291,127.32a98.23,98.23,0,0,0-13.75-3.08c-2.32-.35-4.95.58-5.54,3.15-.49,2.14.66,5.16,3.15,5.53Z"/><path class="cls-6" d="M414.54,127.12c9.19,1.3,19.2,2.15,26.66-4.49,6.49-5.77,8.92-15.69,8.2-24.06a43.11,43.11,0,0,0-10.13-24c-5.75-6.87-13.64-11.63-21.9-14.86a72.15,72.15,0,0,0-14.07-3.83c-5.75-1-11.74-1.75-17.44-.13a4.5,4.5,0,1,0,2.39,8.68c.52-.15,1.05-.28,1.58-.39l.69-.13c-.68.12.07,0,.19,0a31.47,31.47,0,0,1,3.5-.09c1,0,2,.12,3.05.23l.93.11c.17,0,1,.12.08,0l1.63.24a75.53,75.53,0,0,1,11.4,2.69q1.27.41,2.52.87l1.35.51.76.31c.66.26-.59-.27.05,0,1.8.82,3.58,1.66,5.3,2.63a51.39,51.39,0,0,1,5,3.18c.17.13,1.18.93.54.41l1,.77c.78.65,1.54,1.33,2.27,2s1.3,1.28,1.91,2c.3.33.6.66.88,1l.49.59c.27.33.27.33,0,0A35.86,35.86,0,0,1,436.34,86c.41.73.8,1.46,1.16,2.22.19.4.37.81.56,1.22.29.62-.25-.66,0,0l.28.72a36.13,36.13,0,0,1,1.58,5.29c.09.43.18.87.25,1.3s.21,1.42.1.49c.11.94.19,1.88.23,2.82s0,1.63,0,2.44c0,.44,0,.88-.08,1.31,0,.25,0,.5-.07.75s-.13.91,0,.33-.12.7-.16.89c-.08.43-.18.86-.28,1.29-.23.92-.5,1.83-.81,2.72-.07.19-.51,1.32-.34.91s-.06.12-.08.18c-.12.23-.23.47-.34.7a20.59,20.59,0,0,1-1.49,2.52l-.33.48c.36-.52.1-.13-.14.15s-.69.77-1.07,1.13l-.42.39c-.08.08-.91.72-.45.39s-.12.08-.17.11l-.83.52c-.45.26-.91.47-1.37.71s.12-.06.19-.08l-.91.32a27.86,27.86,0,0,1-3,.72c-.52.1.16,0,.23,0l-1,.1c-.53,0-1.06.07-1.59.08-1.07,0-2.14,0-3.21,0s-2.16-.16-3.23-.28l-1.6-.19c-.54-.06.13,0,.2,0l-1.18-.17c-2.32-.32-4.95.57-5.54,3.15-.48,2.12.65,5.18,3.14,5.53Z"/><path class="cls-6" d="M389,58.19a39.17,39.17,0,0,0-43-19.71,38.19,38.19,0,0,0-13.49,5.75c-1.94,1.32-3,4-1.61,6.15,1.24,1.94,4.07,3,6.15,1.62a34.34,34.34,0,0,1,5-2.84c.22-.11,1.13-.47.43-.2.45-.18.89-.35,1.35-.51.9-.33,1.82-.61,2.75-.86s1.86-.46,2.81-.64l1.22-.2c.71-.11-.69,0,0,0l.81-.09a35.74,35.74,0,0,1,5.76,0c.41,0,.82.09,1.23.12.72,0-.68-.12,0,0l.61.09c.93.16,1.86.36,2.78.6s1.71.47,2.55.76l1.07.39.52.21c.51.18-.63-.3.15.06a38.93,38.93,0,0,1,4.67,2.53c.69.45,1.35.93,2,1.41.41.29-.11-.09-.16-.13l.44.36c.4.32.78.65,1.16,1a37,37,0,0,1,4.05,4.25c.05.06.43.56.12.15s.26.36.33.45c.29.41.58.83.85,1.26.56.84,1.07,1.72,1.55,2.61a4.53,4.53,0,0,0,6.15,1.62A4.61,4.61,0,0,0,389,58.19Z"/><path class="cls-6" d="M337.82,47.75a32.87,32.87,0,0,0-18.85-27A35.62,35.62,0,0,0,283.15,25c-5.44,4.11-9.82,9.22-14.12,14.46-1.49,1.82-1.91,4.61,0,6.37,1.65,1.51,4.77,1.94,6.36,0a98.38,98.38,0,0,1,10.82-11.8c.47-.41,1-.8,1.42-1.2,1-.85-.41.28.23-.19l.83-.61a35.11,35.11,0,0,1,3.48-2.2c.49-.26,1-.52,1.48-.75.08,0,1.33-.6.44-.22l.77-.31a30.31,30.31,0,0,1,4-1.21c.6-.14,1.21-.26,1.83-.37.22,0,1.13-.16.24,0,.27,0,.55-.06.82-.09a30.15,30.15,0,0,1,4.14-.13c.7,0,1.38.09,2.07.14.17,0,.89.12,0,0l.81.12a31,31,0,0,1,4,1c.65.21,1.3.45,1.94.71-.8-.33.76.37,1,.48a27,27,0,0,1,3.19,1.89l.76.54c.15.12.63.55,0,0,.42.36.86.71,1.27,1.08a31.07,31.07,0,0,1,2.59,2.67c.2.23.39.48.59.71-.66-.77.11.16.2.28.36.5.7,1,1,1.54a35.49,35.49,0,0,1,1.92,3.6c-.39-.82-.1-.24,0-.05.15.4.31.8.45,1.21.22.65.41,1.3.58,2s.29,1.2.4,1.81c0,0,.21,1.22.1.5s.07.75.08.88c.2,2.34,1.92,4.61,4.5,4.5,2.26-.1,4.72-2,4.5-4.5Z"/><path class="cls-6" d="M273.07,40.55A30,30,0,0,0,230,52.18c-1.05,2.1-.62,5,1.62,6.15,2,1.08,5,.64,6.16-1.61.39-.78.81-1.54,1.27-2.27.2-.32.41-.63.62-.94s.67-.9.19-.28a25.71,25.71,0,0,1,3.33-3.51c.15-.12,1.39-1.11.54-.47.3-.22.6-.44.91-.65.61-.43,1.24-.82,1.89-1.19s1.54-.81,2.33-1.18c-1,.45.17,0,.31-.1.41-.16.82-.3,1.23-.43q1.23-.37,2.49-.63l1.2-.21c-1,.15.42,0,.63,0a26,26,0,0,1,2.65-.07c.41,0,.81,0,1.22.06.15,0,1.54.17,1,.1s.87.16,1,.18c.4.08.8.17,1.19.27.86.22,1.71.48,2.54.78.17.06,1.47.61.63.23l1.1.52a26.49,26.49,0,0,1,2.47,1.44,4.54,4.54,0,0,0,6.16-1.62,4.61,4.61,0,0,0-1.62-6.16Z"/><path class="cls-6" d="M236.31,51.5c-12.38-7.13-27.93-7.12-40.65-.87a39.86,39.86,0,0,0-9.77,6.86,4.53,4.53,0,0,0,0,6.36,4.58,4.58,0,0,0,6.36,0c.53-.5,1.06-1,1.62-1.45l.84-.68c-.69.55.12-.08.39-.27a35.82,35.82,0,0,1,3.82-2.38c.63-.35,1.28-.67,1.93-1l1-.44c-.82.37.11,0,.43-.16a39.86,39.86,0,0,1,4.3-1.38c.7-.18,1.4-.34,2.11-.48l1.07-.2.53-.09c.11,0,.91-.14.3-.05s.65-.07.84-.09q.54-.06,1.08-.09c.79-.06,1.57-.09,2.35-.1a40.1,40.1,0,0,1,4.52.19l1.07.13c-.81-.11-.18,0,.23.05.77.13,1.54.28,2.3.46a36.71,36.71,0,0,1,4.82,1.47c.33.12,1.24.54.43.16.38.18.77.34,1.15.53.82.39,1.61.82,2.4,1.27a4.5,4.5,0,0,0,4.54-7.77Z"/><path class="cls-6" d="M192.25,57.68a157.07,157.07,0,0,0-12.87-15.1,56.29,56.29,0,0,0-7.44-6.79,17.73,17.73,0,0,0-10.12-2.93c-11-.2-21.85,4.73-29.45,12.54a40.15,40.15,0,0,0-9.52,15.84A4.55,4.55,0,0,0,126,66.78a4.6,4.6,0,0,0,5.54-3.14c.18-.58.37-1.14.58-1.71.08-.22.17-.44.26-.67.41-1.08-.28.57,0-.08.52-1.08,1-2.15,1.63-3.19s1.18-1.94,1.84-2.87l.42-.58c.69-.93-.4.47.07-.08s.83-1,1.27-1.51c.72-.8,1.47-1.58,2.26-2.32.43-.41.88-.81,1.33-1.2l.55-.46c.11-.09,1.08-.84.22-.19a39,39,0,0,1,5.78-3.64c.53-.27,1.07-.52,1.62-.78.76-.35.06,0-.09,0l.83-.34c1.12-.43,2.26-.8,3.41-1.12s2.2-.55,3.32-.75l.71-.11c1.15-.19-.69,0,.05,0s1.3-.13,2-.17c1.2-.06,2.38,0,3.57,0,1.37,0-.45-.13.34,0,.36.07.72.13,1.08.22s.56.16.84.24c1.14.36-.48-.35.53.24.31.18.62.35.93.55.15.1.9.64.31.19.46.35.89.75,1.32,1.14,1.1,1,2.17,2.07,3.23,3.13q3.56,3.54,6.85,7.33c1.1,1.26,2.17,2.54,3.23,3.84.48.59,1,1.18,1.43,1.78-.09-.11.83,1.07.49.62-.17-.21-.1-.12.2.27l.55.73c1.42,1.87,4,3,6.16,1.61,1.85-1.19,3.13-4.14,1.61-6.15Z"/><path class="cls-7" d="M426,178.86c4.61,16.65,8.78,33.43,11.84,50.43q1.16,6.42,2.09,12.89c.07.47.13.94.2,1.41,0,.31.08.62.13.94.09.7-.05-.38-.06-.43.24,1.07.29,2.21.42,3.29.26,2.11.49,4.23.71,6.35.85,8.5,1.34,17,1.35,25.59a209.88,209.88,0,0,1-1.5,25.67l-.18,1.39c0,.14-.11.93,0,.13s0,.15-.05.36c-.16,1.08-.32,2.16-.49,3.24q-.49,3.13-1.11,6.24c-.77,3.94-1.66,7.87-2.72,11.75A178.07,178.07,0,0,1,429.33,349c-.16.39-.33.77-.48,1.17,0,0,.46-1.09.19-.47-.11.26-.22.52-.34.78-.39.92-.79,1.83-1.19,2.73q-1.18,2.66-2.42,5.28-2.56,5.44-5.36,10.76A355.1,355.1,0,0,1,395,409.5q-1.59,2.25-3.21,4.47c-1.86,2.55-.51,6.8,2.15,8.21,3.12,1.65,6.23.56,8.21-2.15A361,361,0,0,0,427.6,380c7.59-13.93,14.37-28.49,19.1-43.66,5.08-16.25,7.41-33.43,7.88-50.43a283.63,283.63,0,0,0-4-52.76,509.35,509.35,0,0,0-11.29-51.06q-.87-3.19-1.75-6.39A6,6,0,0,0,426,178.86Z"/><path class="cls-5" d="M112.07,156.23a303.16,303.16,0,0,0-5.14,80.1,324.17,324.17,0,0,0,15.51,79.22A334.15,334.15,0,0,0,139.82,358c1.39,2.82,5.62,3.82,8.21,2.15a6.16,6.16,0,0,0,2.15-8.21c-1.5-3.06-3-6.13-4.36-9.24-.61-1.34-1.21-2.7-1.8-4.05-.36-.82-.71-1.63-1.06-2.45a3.89,3.89,0,0,0-.35-.82l.09.21-.34-.82q-3.74-9-6.93-18.24a320.28,320.28,0,0,1-10.55-37.94q-2.07-9.72-3.53-19.56c-.11-.73-.21-1.46-.31-2.19-.06-.4-.43-2.74-.15-1-.28-1.74-.45-3.51-.65-5.26q-.55-4.82-1-9.65a304,304,0,0,1-.77-39.12c.33-7.31.93-14.62,1.81-21.88.1-.88.21-1.75.32-2.62,0-.31.21-1.83,0-.14,0-.44.12-.87.18-1.31.26-1.88.55-3.77.85-5.64q.87-5.43,2-10.81c.62-3.07-.87-6.62-4.19-7.38-3-.68-6.72.9-7.38,4.19Z"/><path class="cls-1" d="M295.48,214.11c3.93,0,7.69-3.45,7.5-7.5a7.62,7.62,0,0,0-7.5-7.5c-3.92,0-7.68,3.45-7.5,7.5a7.64,7.64,0,0,0,7.5,7.5Z"/><path class="cls-1" d="M348.5,218.52c3.92,0,7.68-3.44,7.5-7.5a7.63,7.63,0,0,0-7.5-7.5c-3.92,0-7.68,3.45-7.5,7.5a7.63,7.63,0,0,0,7.5,7.5Z"/><path class="cls-1" d="M326.41,271.54c3.92,0,7.68-3.45,7.5-7.5a7.63,7.63,0,0,0-7.5-7.5c-3.92,0-7.68,3.45-7.5,7.5a7.63,7.63,0,0,0,7.5,7.5Z"/><path class="cls-1" d="M299.9,282.59c3.93,0,7.68-3.45,7.5-7.5a7.62,7.62,0,0,0-7.5-7.5c-3.92,0-7.68,3.45-7.5,7.5a7.63,7.63,0,0,0,7.5,7.5Z"/><path class="cls-1" d="M350.71,344.44c3.92,0,7.68-3.45,7.5-7.5a7.63,7.63,0,0,0-7.5-7.5c-3.92,0-7.68,3.45-7.5,7.5a7.63,7.63,0,0,0,7.5,7.5Z"/><path class="cls-1" d="M295.48,401.87c3.93,0,7.69-3.45,7.5-7.5a7.63,7.63,0,0,0-7.5-7.5c-3.92,0-7.68,3.45-7.5,7.5a7.63,7.63,0,0,0,7.5,7.5Z"/><path class="cls-1" d="M302.11,439.43c3.92,0,7.68-3.45,7.5-7.5a7.62,7.62,0,0,0-7.5-7.5c-3.92,0-7.68,3.45-7.5,7.5a7.63,7.63,0,0,0,7.5,7.5Z"/><path class="cls-1" d="M322,457.1c3.93,0,7.68-3.45,7.5-7.5a7.63,7.63,0,0,0-7.5-7.5c-3.92,0-7.68,3.45-7.5,7.5a7.63,7.63,0,0,0,7.5,7.5Z"/><path class="cls-5" d="M336.4,136.19a20.4,20.4,0,0,0,7.11,5,27.8,27.8,0,0,0,8.62,2.34,1.51,1.51,0,0,0,1.5-1.5,1.54,1.54,0,0,0-1.5-1.5,23.08,23.08,0,0,1-7.33-2,18.13,18.13,0,0,1-6.28-4.45,1.52,1.52,0,0,0-2.12,0,1.55,1.55,0,0,0,0,2.13Z"/><path class="cls-5" d="M352.74,140.9l-1.58-.92a1.12,1.12,0,0,0-.56-.18,1.08,1.08,0,0,0-.59,0,1,1,0,0,0-.51.27,1,1,0,0,0-.39.42,1.49,1.49,0,0,0-.15,1.15,1.55,1.55,0,0,0,.69.9l1.58.92a1.12,1.12,0,0,0,.56.18,1.22,1.22,0,0,0,.6,0,1.26,1.26,0,0,0,.51-.27,1,1,0,0,0,.38-.42,1.46,1.46,0,0,0,.15-1.15,1.52,1.52,0,0,0-.69-.9Z"/><path class="cls-5" d="M351.2,143.43a1.5,1.5,0,0,0,0-3,1.5,1.5,0,0,0,0,3Z"/><path class="cls-5" d="M351.2,143.53a1.5,1.5,0,0,0,0-3,1.5,1.5,0,0,0,0,3Z"/><path class="cls-5" d="M352.23,143.73a1.5,1.5,0,0,0,0-3,1.5,1.5,0,0,0,0,3Z"/><path class="cls-5" d="M352.82,140.94l-.35-.13.35.15a3.65,3.65,0,0,1-.83-.48,1.08,1.08,0,0,0-.55-.17,1.11,1.11,0,0,0-.6,0,1.14,1.14,0,0,0-.51.27,1.21,1.21,0,0,0-.39.42l-.15.36a1.55,1.55,0,0,0,0,.8l.15.36a1.45,1.45,0,0,0,.54.53,3.41,3.41,0,0,0,.57.36c.21.11.43.2.65.29l.32.11a1.22,1.22,0,0,0,.6,0,1.16,1.16,0,0,0,.56-.18,1.12,1.12,0,0,0,.42-.39,1.14,1.14,0,0,0,.27-.51l.05-.39a1.51,1.51,0,0,0-.2-.76l-.24-.31a1.57,1.57,0,0,0-.66-.38Z"/></g></svg>
