<svg xmlns="http://www.w3.org/2000/svg" width="762.04" height="850.76" viewBox="0 0 762.04 850.76"><defs><style>.cls-1{fill:#fff;}</style></defs><title>pale_ale</title><g id="Layer_2" data-name="Layer 2"><path class="cls-1" d="M381,12.26a346.7,346.7,0,0,1,100.9,15.1,374.93,374.93,0,0,1,77,33.38c42.15,24.14,66.25,48.64,66.48,48.88l.3.31.33.29a284.73,284.73,0,0,1,60,75.69,328.9,328.9,0,0,1,29.88,75.83C728,308.15,727,343.51,727,343.85l-.43,12.41H750V504.13l-19.29,18.46-3.21,3.06-.44,4.42C722.37,576.92,709.4,620.64,688.5,660A327.27,327.27,0,0,1,610,757.09c-62.87,53-144.2,82.17-229,82.17s-166.15-29.18-229-82.17A327.27,327.27,0,0,1,73.5,660c-20.9-39.37-33.87-83.09-38.56-129.94l-.44-4.42-3.21-3.06L12,504.13V356.26H35.42L35,343.85c0-.35-1.05-35.06,10.88-81.34a329.94,329.94,0,0,1,29.84-76.17A284.89,284.89,0,0,1,136,110.22l.33-.29.29-.3c.24-.25,24.34-24.75,66.49-48.89a374.93,374.93,0,0,1,77-33.38A346.7,346.7,0,0,1,381,12.26m0-12c-155,0-253,101-253,101-110,98-105,243-105,243H0v165l23,22c20,200,184,320,358,320s338-120,358-320l23-22v-165H739s5-145-105-243c0,0-98-101-253-101Z"/><path class="cls-1" d="M736.75,370.76v112.5H25.25V370.76h711.5m6-6H19.25v124.5h723.5V364.76Z"/><polygon class="cls-1" points="730 345.26 35 345.26 35 356.26 730 356.26 730 345.26 730 345.26"/><polygon class="cls-1" points="752 498.26 10 498.26 10 509.26 752 509.26 752 498.26 752 498.26"/><path class="cls-1" d="M600.1,509.26H587.59c-12.89,189.54-200.68,191-206.45,191h-.28c-5.75,0-193.56-1.45-206.45-191H161.9S160.25,674,338.43,708a227.41,227.41,0,0,0,85.14,0C601.75,674,600.1,509.26,600.1,509.26Z"/><path class="cls-1" d="M613.77,509.26h-5.62c-13.38,207.87-218.89,211.44-226.9,211.5s-213.52-3.63-226.9-211.5h-5.62S145,712,381,726.73v0l.25,0,.25,0v0c236-14.76,232.27-217.47,232.27-217.47Z"/><path class="cls-1" d="M381,143a227.33,227.33,0,0,0-42.57,4C160.25,181,161.9,345.76,161.9,345.76h12.51c12.89-189.55,200.7-191,206.45-191h.28c5.77,0,193.56,1.46,206.45,191H600.1S601.75,181,423.57,147A227.33,227.33,0,0,0,381,143Z"/><path class="cls-1" d="M381.5,128.26l-.25,0-.25,0v0C145,143.05,148.73,345.76,148.73,345.76h5.62c13.38-207.86,218.89-211.44,226.9-211.5s213.52,3.64,226.9,211.5h5.62s3.72-202.71-232.27-217.47v0Z"/><path class="cls-1" d="M720.71,509.26h-5.17c-17.75,311.87-324.37,318.37-334.29,318.5-9.92-.13-316.54-6.63-334.29-318.5H41.79S31,800,381,833.71v0l.25,0,.25,0v0c350-33.73,339.21-324.45,339.21-324.45Z"/><path class="cls-1" d="M381,21.26h0Zm0,0Zm0,0h0Zm.11,0H381C31,55,41.79,345.76,41.79,345.76H47C64.71,33.89,371.33,27.39,381.25,27.26c9.92.13,316.54,6.63,334.29,318.5h5.17S732,55,382,21.26h-.92Zm-.09,0Zm0,0Zm0,0Zm0,0Zm0,0Zm0,0h0Zm0,0Zm0,0Zm0,0Zm0,0Zm0,0Zm0,0Z"/><polygon class="cls-1" points="35.32 509.26 17 509.26 34.5 525.76 35.32 509.26 35.32 509.26"/><polygon class="cls-1" points="745.32 509.26 727 509.26 727.82 525.76 745.32 509.26 745.32 509.26"/><polygon class="cls-1" points="165 514.26 33 514.26 33 526.26 165 526.26 165 514.26 165 514.26"/><polygon class="cls-1" points="167 532.26 34 532.26 34 542.26 167 542.26 167 532.26 167 532.26"/><polygon class="cls-1" points="171 550.26 37 550.26 37 558.26 171 558.26 171 550.26 171 550.26"/><polygon class="cls-1" points="177 568.26 40 568.26 40 574.26 177 574.26 177 568.26 177 568.26"/><polygon class="cls-1" points="184 585.26 44 585.26 44 591.26 184 591.26 184 585.26 184 585.26"/><polygon class="cls-1" points="192 603.26 49 603.26 49 607.26 192 607.26 192 603.26 192 603.26"/><polygon class="cls-1" points="203 621.26 55 621.26 55 623.26 203 623.26 203 621.26 203 621.26"/><polygon class="cls-1" points="730 514.26 598 514.26 598 526.26 730 526.26 730 514.26 730 514.26"/><polygon class="cls-1" points="729 532.26 596 532.26 596 542.26 729 542.26 729 532.26 729 532.26"/><polygon class="cls-1" points="726 550.26 592 550.26 592 558.26 726 558.26 726 550.26 726 550.26"/><polygon class="cls-1" points="723 568.26 586 568.26 586 574.26 723 574.26 723 568.26 723 568.26"/><polygon class="cls-1" points="719 585.26 579 585.26 579 591.26 719 591.26 719 585.26 719 585.26"/><polygon class="cls-1" points="714 603.26 571 603.26 571 607.26 714 607.26 714 603.26 714 603.26"/><polygon class="cls-1" points="708 621.26 560 621.26 560 623.26 708 623.26 708 621.26 708 621.26"/><polygon class="cls-1" points="730 328.26 598 328.26 598 340.26 730 340.26 730 328.26 730 328.26"/><polygon class="cls-1" points="729 312.26 596 312.26 596 322.26 729 322.26 729 312.26 729 312.26"/><polygon class="cls-1" points="726 296.26 592 296.26 592 304.26 726 304.26 726 296.26 726 296.26"/><polygon class="cls-1" points="723 280.26 586 280.26 586 286.26 723 286.26 723 280.26 723 280.26"/><polygon class="cls-1" points="719 263.26 579 263.26 579 269.26 719 269.26 719 263.26 719 263.26"/><polygon class="cls-1" points="714 247.26 571 247.26 571 251.26 714 251.26 714 247.26 714 247.26"/><polygon class="cls-1" points="708 231.26 560 231.26 560 233.26 708 233.26 708 231.26 708 231.26"/><polygon class="cls-1" points="163 328.26 31 328.26 31 340.26 163 340.26 163 328.26 163 328.26"/><polygon class="cls-1" points="165 312.26 32 312.26 32 322.26 165 322.26 165 312.26 165 312.26"/><polygon class="cls-1" points="169 296.26 35 296.26 35 304.26 169 304.26 169 296.26 169 296.26"/><polygon class="cls-1" points="175 280.26 38 280.26 38 286.26 175 286.26 175 280.26 175 280.26"/><polygon class="cls-1" points="182 263.26 42 263.26 42 269.26 182 269.26 182 263.26 182 263.26"/><polygon class="cls-1" points="190 247.26 47 247.26 47 251.26 190 251.26 190 247.26 190 247.26"/><polygon class="cls-1" points="201 231.26 53 231.26 53 233.26 201 233.26 201 231.26 201 231.26"/></g><g id="Layer_3" data-name="Layer 3"><path class="cls-1" d="M190.61,419.66c0,18.74-12.47,26.67-33.48,26.67h-3.5v18.75H124.79V393h32.34C178.14,393,190.61,400.91,190.61,419.66Zm-27,0c0-4.43-2.68-6.59-7.83-6.59h-2.67v13.18h2.67C160.94,426.25,163.62,424.09,163.62,419.66Z"/><path class="cls-1" d="M261.26,465.08H233.35l-2.16-8.34H213.68l-2.16,8.34H183.81L206.67,393H238.4Zm-34.91-27.19c-1.86-8-3.5-16.17-3.92-21.32-.41,5.15-2.06,13.29-4,21.32Z"/><path class="cls-1" d="M322.75,465.08H265.8V393h29.66v49h27.29Z"/><path class="cls-1" d="M391.35,465.08H329.14V393h62v20H357.46v6.18h24.11v19.68H357.46v6.28h33.89Z"/><path class="cls-1" d="M508.25,465.08H480.34l-2.16-8.34H460.67l-2.16,8.34H430.8L453.67,393h31.72Zm-34.91-27.19c-1.86-8-3.51-16.17-3.92-21.32-.41,5.15-2.06,13.29-4,21.32Z"/><path class="cls-1" d="M569.74,465.08h-57V393h29.66v49h27.29Z"/><path class="cls-1" d="M638.34,465.08H576.13V393h62v20H604.46v6.18h24.1v19.68h-24.1v6.28h33.88Z"/></g><g id="Layer_6" data-name="Layer 6"><path class="cls-1" d="M321.16,48.89c-.84,4.33-1.59,8.67-2.24,13,4.26,4.6,7.27,12.3,9.88,22.63,5.12,20.91,4.21,32.64-5.27,35.77a10.91,10.91,0,0,1-8-.21c-.05-.08.27,6.83.29,6.82-1.61.65-3.21,1.31-4.81,2q-.56-6.3-.85-12.67C305.9,112,301.77,104.83,297.59,95c-8.56-19.61-8.39-32.4,5-37A15.1,15.1,0,0,1,313,57.87c.34-2.37.71-4.75,1.1-7.12C316.45,50.09,318.8,49.48,321.16,48.89Zm-9.1,16.48c-2.59-2.44-5.24-3.13-7.92-2.23-6.53,2.22-6.86,11.41.12,29.18a99.18,99.18,0,0,0,5.58,12.38A314.75,314.75,0,0,1,312.06,65.37Zm9.86,21a84.71,84.71,0,0,0-4.58-12.79,308.59,308.59,0,0,0-2,39.09c2.4,2.41,4.56,3.18,6.62,2.49C326.8,113.52,327.13,104.77,321.92,86.37Z"/><path class="cls-1" d="M365.92,110.5a181.54,181.54,0,0,0-20.06,2.8q-6.17-31.24-12.34-62.49,4.08-.81,8.16-1.47Q346.35,78,351,106.65q7.2-1.17,14.47-1.77C365.61,106.75,365.77,108.63,365.92,110.5Z"/><path class="cls-1" d="M393.75,110.35a181.74,181.74,0,0,0-20.21-.32Q372.27,78.21,371,46.38q4.13-.16,8.26-.19.18,29,.37,58.06,7.27,0,14.54.48C394,106.6,393.88,108.48,393.75,110.35Z"/><path class="cls-1" d="M423.29,115a180.37,180.37,0,0,0-21.94-3.91l7.26-63.28a241.74,241.74,0,0,1,28.44,5c-.43,1.83-.87,3.66-1.3,5.49-6.54-1.55-13.14-2.82-19.76-3.81q-1.58,10.49-3.14,21,6.33.95,12.6,2.26c-.39,1.84-.78,3.69-1.16,5.53Q418.19,81.91,412,81l-3.78,25.3q8.25,1.23,16.38,3.2C424.18,111.32,423.74,113.14,423.29,115Z"/><path class="cls-1" d="M475.52,71.26q-6-2.6-12.16-4.87L443.2,121q-2.91-1.08-5.84-2.05l18.27-55.3c-4.12-1.36-8.28-2.61-12.45-3.74.47-1.76.95-3.51,1.43-5.27a244.87,244.87,0,0,1,33.08,11.57Q476.6,68.76,475.52,71.26Z"/><path class="cls-1" d="M176.55,666.86c-9.61,8.24-20.2,3.87-26.66-5.15q-1.2-1.66-2.37-3.36L123.81,675q-2.69-3.84-5.28-7.79l53.25-35q3.24,4.93,6.64,9.65C184.37,650.08,185.48,659.21,176.55,666.86Zm-5.29-6c6-4.78,6.48-10.39,2.46-15.95-.79-1.1-1.57-2.2-2.35-3.31l-19.23,13.47c.84,1.21,1.7,2.41,2.56,3.6C159.13,664.85,165.23,665.73,171.26,660.91Z"/><path class="cls-1" d="M173.42,730.88q-3.51-3.14-6.95-6.37,6.39-14.64,13.61-28.72a66,66,0,0,1-5.08-5l-21.67,20.55q-3.09-3.29-6.1-6.68l47.48-42.51q3.76,4.25,7.67,8.26c6.81,7,8.93,15.89,1.61,24.27-4.94,5.59-11,6.86-16.73,5.11Q179.87,715,173.42,730.88ZM198,689.81c5-5.34,4.75-10.88.14-15.62-.9-.93-1.8-1.87-2.69-2.82L179,687c1,1,1.95,2.06,2.93,3.07C187,695.32,193,695.19,198,689.81Z"/><path class="cls-1" d="M206.33,756.42a310.87,310.87,0,0,1-25.39-19.07l40.7-49.08Q231,696.12,241,702.9l-3.17,4.68q-7.27-5-14.26-10.44-6.56,8.34-13.09,16.7,5.26,4.15,10.7,8L218,726.46q-5.53-3.94-10.92-8.17-7.89,10.07-15.79,20.14,8.92,7,18.25,13.3C208.43,753.29,207.38,754.86,206.33,756.42Z"/><path class="cls-1" d="M254.47,783q-3.53-1.54-7-3.2l14.76-31.11c2.22-4.69,4.12-8.43,6-12.38a106.09,106.09,0,0,1-8.83,11.13q-12.54,14.05-26.19,27.35,3.44-18.72,8.09-37a117.19,117.19,0,0,1,4.31-13.54c-2.25,3.76-4,7-6.95,11.88q-8.81,14.79-17.63,29.58-3.35-2-6.66-4.08l34-54q3.24,2,6.52,4-4.43,15.15-8,30.65a86,86,0,0,1-5.09,16.4c2.82-4.48,6.09-8.21,10.9-13.31q10.88-11.61,21-23.76,3.36,1.61,6.76,3.11Q267.44,753.88,254.47,783Z"/><path class="cls-1" d="M275.13,791.28c-2.65-.95-5.29-1.95-7.93-3L290.57,729q3.17,1.23,6.34,2.38Z"/><path class="cls-1" d="M326.3,789.92c-1.76,9.56-10.19,14.28-21,11.58s-15.78-10.8-12.78-20q7.36-23.31,14.72-46.63,3.23,1,6.46,1.92-6.71,23.41-13.42,46.83c-1.81,6.2.73,11,6.54,12.48s10.33-1.61,11.7-7.92q5.24-23.77,10.48-47.56,3.28.7,6.58,1.34Q330.93,765.92,326.3,789.92Z"/><path class="cls-1" d="M380.56,810.12c-2.54,0-5.07-.08-7.6-.16q.57-17.19,1.15-34.38c.17-5.19.42-9.36.56-13.73a106,106,0,0,1-3.6,13.71q-5.82,17.87-12.91,35.49Q353.95,792.56,351,774a120.93,120.93,0,0,1-1.39-14.1c-.55,4.34-.9,8-1.61,13.65l-4.32,34.13q-3.78-.46-7.54-1l9.51-63c2.46.37,4.91.7,7.38,1q1.9,15.63,4.73,31.24a86.76,86.76,0,0,1,1.82,17c.78-5.24,2.28-9.95,4.61-16.55q5.25-15,9.6-30.11c2.44.09,4.89.15,7.33.17Q380.85,778.27,380.56,810.12Z"/><path class="cls-1" d="M450.31,800.51q-2.35,2.32-4.79,4.61c-1.41-.74-2.8-1.5-4.18-2.26a15,15,0,0,1-9.19,4.59c-13.95,2-20.12-9.06-22-30.4s1.14-32.95,11.94-34.54,17.19,8.37,21.87,29.38c2.36,10.85,2.74,19.44.54,25.54C446.43,798.48,448.36,799.5,450.31,800.51Zm-14-27.09c-3.58-18.6-8-26.15-13.47-25.32s-7.19,9.32-5,28.13,6.82,26.64,13.53,25.62a7.42,7.42,0,0,0,4.49-2.1q-3.56-2.09-7-4.24,2.36-2.19,4.65-4.41,2.32,1.41,4.7,2.79C438.89,789.61,438.16,783.17,436.33,773.42Z"/><path class="cls-1" d="M491.06,775.76c3.54,9.06-1.22,17.5-11.9,20.85s-19.14-1-21.45-10.43l-12-47.39q3.27-.82,6.51-1.72,6.6,23.45,13.21,46.88c1.72,6.23,6.42,9,12.15,7.24s8-6.77,5.84-12.86l-16.11-46q3.19-1.1,6.36-2.3Z"/><path class="cls-1" d="M540.18,769.1q-4,2.28-8.1,4.44-5.58-6.54-11-13.18-6.3,3.24-12.73,6.15,1.88,8.36,3.57,16.76c-2.72,1.2-5.45,2.35-8.19,3.47q-4.89-32.43-12.78-64,3.38-1.57,6.71-3.25Q517.61,745.21,540.18,769.1Zm-22.63-13.17q-4.09-5.17-8.1-10.41a178.35,178.35,0,0,1-11-15.69,182.62,182.62,0,0,1,5.49,18.37q1.64,6.38,3.17,12.79Q512.35,758.58,517.55,755.93Z"/><path class="cls-1" d="M572.2,748.26q-11.6,8.61-23.8,16Q531.84,737,515.27,709.79q2.94-1.78,5.84-3.66,15.76,24.4,31.54,48.82,8.24-5.33,16.19-11.23Z"/><path class="cls-1" d="M586.59,736.91q-3.37,2.83-6.81,5.54l-39.44-50.1c1.83-1.45,3.65-2.92,5.44-4.43Z"/><path class="cls-1" d="M576.67,665.45c-2.6,2.95-5.27,5.82-8,8.62l41.68,40.72q-3.12,3.23-6.32,6.34l-40.52-41.89q-4.15,4.05-8.46,7.88L551.45,683a252.17,252.17,0,0,0,21.15-21.22Z"/><path class="cls-1" d="M595.23,632.19q11.28,15.73,21.19,32.79l22.19,16.37q-2.75,3.75-5.58,7.39l-21.56-16.9a377.13,377.13,0,0,1-37.15-12q2.49-2.86,4.92-5.84,7.85,3,15.88,5.63c5.5,1.84,10.55,3.46,14.07,5-2.42-3-5.49-7.54-8.59-12.25s-6.35-9.33-9.65-13.88C592.4,636.43,593.83,634.33,595.23,632.19Z"/></g></svg>
