<svg xmlns="http://www.w3.org/2000/svg" width="1000" height="1000" viewBox="0 0 1000 1000"><defs><style>.cls-1{fill:#fff;}</style></defs><title>pale_ale</title><g id="Layer_2" data-name="Layer 2"><path class="cls-1" d="M500,86.5a346.7,346.7,0,0,1,100.9,15.1,374.93,374.93,0,0,1,77,33.38c42.15,24.14,66.25,48.64,66.48,48.88l.3.31.33.29a284.73,284.73,0,0,1,60,75.69A328.9,328.9,0,0,1,834.93,336C847,382.39,846,417.75,846,418.09l-.43,12.41H869V578.37l-19.29,18.46-3.21,3.06-.44,4.42c-4.69,46.85-17.66,90.57-38.56,129.94A327.23,327.23,0,0,1,729,831.32c-62.87,53-144.2,82.18-229,82.18s-166.15-29.18-229-82.18a327.23,327.23,0,0,1-78.48-97.07c-20.9-39.37-33.87-83.09-38.56-129.94l-.44-4.42-3.21-3.06L131,578.37V430.5h23.42L154,418.09c0-.35-1.05-35.06,10.88-81.35a329.86,329.86,0,0,1,29.84-76.16A284.89,284.89,0,0,1,255,184.46l.33-.29.29-.3c.24-.25,24.34-24.75,66.49-48.89a374.93,374.93,0,0,1,77-33.38A346.7,346.7,0,0,1,500,86.5m0-12c-155,0-253,101-253,101-110,98-105,243-105,243H119v165l23,22c20,200,184,320,358,320s338-120,358-320l23-22v-165H858s5-145-105-243c0,0-98-101-253-101Z"/><path class="cls-1" d="M855.75,445V557.5H144.25V445h711.5m6-6H138.25V563.5h723.5V439Z"/><polygon class="cls-1" points="849 419.5 154 419.5 154 430.5 849 430.5 849 419.5 849 419.5"/><polygon class="cls-1" points="871 572.5 129 572.5 129 583.5 871 583.5 871 572.5 871 572.5"/><path class="cls-1" d="M719.1,583.5H706.59C693.7,773,505.91,774.5,500.14,774.5h-.28c-5.75,0-193.56-1.45-206.45-191H280.9s-1.65,164.73,176.53,198.72a227.41,227.41,0,0,0,85.14,0C720.75,748.23,719.1,583.5,719.1,583.5Z"/><path class="cls-1" d="M732.77,583.5h-5.62C713.77,791.36,508.26,794.94,500.25,795s-213.52-3.64-226.9-211.5h-5.62S264,786.21,500,801v0l.25,0,.25,0v0c236-14.76,232.27-217.47,232.27-217.47Z"/><path class="cls-1" d="M500,217.26a227.33,227.33,0,0,0-42.57,4C279.25,255.27,280.9,420,280.9,420h12.51c12.89-189.55,200.7-191,206.45-191h.28c5.77,0,193.56,1.46,206.45,191H719.1s1.65-164.73-176.53-198.72a227.33,227.33,0,0,0-42.57-4Z"/><path class="cls-1" d="M500.5,202.5l-.25,0-.25,0v0C264,217.29,267.73,420,267.73,420h5.62c13.38-207.86,218.89-211.44,226.9-211.5s213.52,3.64,226.9,211.5h5.62s3.72-202.71-232.27-217.47v0Z"/><path class="cls-1" d="M839.71,583.5h-5.17C816.79,895.37,510.17,901.87,500.25,902c-9.92-.13-316.54-6.63-334.29-318.5h-5.17S150,874.22,500,908v0l.25,0,.25,0v0c350-33.73,339.21-324.45,339.21-324.45Z"/><path class="cls-1" d="M500,95.5h0Zm0,0Zm0,0h0Zm.11,0H500C150,129.23,160.79,420,160.79,420H166c17.75-311.87,324.37-318.37,334.29-318.5,9.92.13,316.54,6.63,334.29,318.5h5.17S851,129.23,501,95.5h-.92Zm-.09,0Zm0,0Zm0,0Zm0,0Zm0,0Zm0,0h0Zm0,0Zm0,0Zm0,0Zm0,0Zm0,0Zm0,0Z"/><polygon class="cls-1" points="154.32 583.5 136 583.5 153.5 600 154.32 583.5 154.32 583.5"/><polygon class="cls-1" points="864.32 583.5 846 583.5 846.82 600 864.32 583.5 864.32 583.5"/><polygon class="cls-1" points="284 588.5 152 588.5 152 600.5 284 600.5 284 588.5 284 588.5"/><polygon class="cls-1" points="286 606.5 153 606.5 153 616.5 286 616.5 286 606.5 286 606.5"/><polygon class="cls-1" points="290 624.5 156 624.5 156 632.5 290 632.5 290 624.5 290 624.5"/><polygon class="cls-1" points="296 642.5 159 642.5 159 648.5 296 648.5 296 642.5 296 642.5"/><polygon class="cls-1" points="303 659.5 163 659.5 163 665.5 303 665.5 303 659.5 303 659.5"/><polygon class="cls-1" points="311 677.5 168 677.5 168 681.5 311 681.5 311 677.5 311 677.5"/><polygon class="cls-1" points="322 695.5 174 695.5 174 697.5 322 697.5 322 695.5 322 695.5"/><polygon class="cls-1" points="849 588.5 717 588.5 717 600.5 849 600.5 849 588.5 849 588.5"/><polygon class="cls-1" points="848 606.5 715 606.5 715 616.5 848 616.5 848 606.5 848 606.5"/><polygon class="cls-1" points="845 624.5 711 624.5 711 632.5 845 632.5 845 624.5 845 624.5"/><polygon class="cls-1" points="842 642.5 705 642.5 705 648.5 842 648.5 842 642.5 842 642.5"/><polygon class="cls-1" points="838 659.5 698 659.5 698 665.5 838 665.5 838 659.5 838 659.5"/><polygon class="cls-1" points="833 677.5 690 677.5 690 681.5 833 681.5 833 677.5 833 677.5"/><polygon class="cls-1" points="827 695.5 679 695.5 679 697.5 827 697.5 827 695.5 827 695.5"/><polygon class="cls-1" points="849 402.5 717 402.5 717 414.5 849 414.5 849 402.5 849 402.5"/><polygon class="cls-1" points="848 386.5 715 386.5 715 396.5 848 396.5 848 386.5 848 386.5"/><polygon class="cls-1" points="845 370.5 711 370.5 711 378.5 845 378.5 845 370.5 845 370.5"/><polygon class="cls-1" points="842 354.5 705 354.5 705 360.5 842 360.5 842 354.5 842 354.5"/><polygon class="cls-1" points="838 337.5 698 337.5 698 343.5 838 343.5 838 337.5 838 337.5"/><polygon class="cls-1" points="833 321.5 690 321.5 690 325.5 833 325.5 833 321.5 833 321.5"/><polygon class="cls-1" points="827 305.5 679 305.5 679 307.5 827 307.5 827 305.5 827 305.5"/><polygon class="cls-1" points="282 402.5 150 402.5 150 414.5 282 414.5 282 402.5 282 402.5"/><polygon class="cls-1" points="284 386.5 151 386.5 151 396.5 284 396.5 284 386.5 284 386.5"/><polygon class="cls-1" points="288 370.5 154 370.5 154 378.5 288 378.5 288 370.5 288 370.5"/><polygon class="cls-1" points="294 354.5 157 354.5 157 360.5 294 360.5 294 354.5 294 354.5"/><polygon class="cls-1" points="301 337.5 161 337.5 161 343.5 301 343.5 301 337.5 301 337.5"/><polygon class="cls-1" points="309 321.5 166 321.5 166 325.5 309 325.5 309 321.5 309 321.5"/><polygon class="cls-1" points="320 305.5 172 305.5 172 307.5 320 307.5 320 305.5 320 305.5"/></g><g id="Layer_3" data-name="Layer 3"><path class="cls-1" d="M309.61,493.9c0,18.74-12.47,26.67-33.48,26.67h-3.5v18.75H243.79v-72.1h32.34C297.14,467.22,309.61,475.15,309.61,493.9Zm-27,0c0-4.43-2.68-6.59-7.83-6.59h-2.67v13.18h2.67C279.94,500.49,282.62,498.33,282.62,493.9Z"/><path class="cls-1" d="M380.26,539.32H352.35L350.19,531H332.68l-2.16,8.34H302.81l22.86-72.1H357.4Zm-34.91-27.19c-1.86-8-3.5-16.17-3.92-21.32-.41,5.15-2.06,13.28-4,21.32Z"/><path class="cls-1" d="M441.75,539.32H384.8v-72.1h29.66v49h27.29Z"/><path class="cls-1" d="M510.35,539.32H448.14v-72.1h62v20H476.46v6.18h24.11v19.68H476.46v6.28h33.89Z"/><path class="cls-1" d="M627.25,539.32H599.34L597.18,531H579.67l-2.16,8.34H549.8l22.87-72.1h31.72Zm-34.91-27.19c-1.86-8-3.51-16.17-3.92-21.32-.41,5.15-2.06,13.28-4,21.32Z"/><path class="cls-1" d="M688.74,539.32h-57v-72.1h29.66v49h27.29Z"/><path class="cls-1" d="M757.34,539.32H695.13v-72.1h62v20H723.46v6.18h24.1v19.68h-24.1v6.28h33.88Z"/></g><g id="Layer_6" data-name="Layer 6"><path class="cls-1" d="M440.16,123.13q-1.26,6.5-2.24,13c4.26,4.6,7.27,12.3,9.88,22.63,5.12,20.91,4.21,32.64-5.27,35.77a10.91,10.91,0,0,1-8-.21c-.05-.08.27,6.83.29,6.82-1.61.65-3.21,1.31-4.81,2q-.56-6.3-.85-12.67c-4.24-4.26-8.37-11.39-12.55-21.19-8.56-19.61-8.39-32.4,5-37a15.1,15.1,0,0,1,10.47-.14q.51-3.56,1.1-7.13C435.45,124.33,437.8,123.72,440.16,123.13Zm-9.1,16.48c-2.59-2.44-5.24-3.13-7.92-2.23-6.53,2.22-6.86,11.41.12,29.18a99.18,99.18,0,0,0,5.58,12.38A314.64,314.64,0,0,1,431.06,139.61Zm9.86,21a84.71,84.71,0,0,0-4.58-12.79,308.49,308.49,0,0,0-2,39.09c2.4,2.41,4.56,3.18,6.62,2.49C445.8,187.76,446.13,179,440.92,160.61Z"/><path class="cls-1" d="M484.92,184.74a181.54,181.54,0,0,0-20.06,2.8q-6.17-31.24-12.34-62.49,4.08-.81,8.16-1.47,4.67,28.65,9.31,57.31,7.2-1.17,14.47-1.77C484.61,181,484.77,182.87,484.92,184.74Z"/><path class="cls-1" d="M512.75,184.59a181.74,181.74,0,0,0-20.21-.32q-1.28-31.82-2.56-63.65,4.13-.16,8.26-.19.18,29,.37,58.06,7.27,0,14.54.48C513,180.84,512.88,182.72,512.75,184.59Z"/><path class="cls-1" d="M542.29,189.21a180.37,180.37,0,0,0-21.94-3.91L527.61,122a241.74,241.74,0,0,1,28.44,5c-.43,1.83-.87,3.66-1.3,5.49-6.54-1.55-13.14-2.82-19.76-3.81q-1.57,10.48-3.14,21,6.33.94,12.6,2.26-.59,2.76-1.16,5.52-6.1-1.27-12.27-2.2l-3.78,25.29q8.25,1.23,16.38,3.21Q543,186.46,542.29,189.21Z"/><path class="cls-1" d="M594.52,145.5q-6-2.61-12.16-4.87L562.2,195.27q-2.91-1.07-5.84-2l18.27-55.3c-4.12-1.36-8.28-2.61-12.45-3.74.47-1.76,1-3.51,1.43-5.27a244.87,244.87,0,0,1,33.08,11.57Q595.6,143,594.52,145.5Z"/><path class="cls-1" d="M295.55,741.1c-9.61,8.24-20.2,3.87-26.66-5.15q-1.2-1.66-2.37-3.36l-23.71,16.6q-2.69-3.84-5.28-7.79l53.25-35q3.24,4.92,6.64,9.65C303.37,724.31,304.48,733.45,295.55,741.1Zm-5.29-6c6-4.78,6.48-10.39,2.46-16-.79-1.09-1.57-2.19-2.35-3.3l-19.23,13.46c.84,1.22,1.7,2.42,2.56,3.61C278.13,739.09,284.23,740,290.26,735.15Z"/><path class="cls-1" d="M292.42,805.12q-3.51-3.14-6.95-6.37,6.39-14.64,13.61-28.72a66,66,0,0,1-5.08-5l-21.67,20.55q-3.09-3.29-6.1-6.68l47.48-42.51q3.77,4.25,7.67,8.26c6.81,7,8.93,15.89,1.61,24.27-4.94,5.59-10.95,6.85-16.73,5.11Q298.87,789.25,292.42,805.12ZM317,764.05c5-5.34,4.75-10.88.14-15.62-.9-.93-1.8-1.87-2.69-2.82L298,761.27c1,1,1.95,2.06,2.93,3.07C306,769.56,312,769.43,317,764.05Z"/><path class="cls-1" d="M325.33,830.66a313.18,313.18,0,0,1-25.39-19.07l40.7-49.08q9.41,7.85,19.4,14.63l-3.17,4.68q-7.28-5-14.26-10.45l-13.09,16.71q5.26,4.15,10.7,8L337,800.7q-5.54-3.94-10.92-8.18-7.89,10.08-15.79,20.15,8.92,7,18.25,13.3C327.43,827.53,326.38,829.1,325.33,830.66Z"/><path class="cls-1" d="M373.47,857.24c-2.35-1-4.69-2.1-7-3.2l14.76-31.11c2.22-4.69,4.12-8.43,6-12.38a106.09,106.09,0,0,1-8.83,11.13Q365.85,835.73,352.2,849q3.44-18.72,8.09-37a117.19,117.19,0,0,1,4.31-13.54c-2.25,3.76-4,7-7,11.88Q348.85,825.18,340,840q-3.34-2-6.66-4.08l34-54q3.24,2,6.52,4-4.42,15.15-8,30.65a86,86,0,0,1-5.09,16.4c2.82-4.48,6.09-8.21,10.9-13.31q10.88-11.61,21-23.76,3.36,1.61,6.76,3.11Q386.44,828.12,373.47,857.24Z"/><path class="cls-1" d="M394.13,865.52c-2.65-.95-5.29-1.95-7.93-3l23.37-59.31q3.17,1.23,6.34,2.38Z"/><path class="cls-1" d="M445.3,864.16c-1.76,9.56-10.19,14.28-21,11.58s-15.78-10.8-12.78-20q7.36-23.31,14.72-46.63,3.23,1,6.46,1.92-6.71,23.41-13.42,46.83c-1.81,6.2.73,11,6.54,12.48s10.33-1.61,11.7-7.92q5.24-23.77,10.48-47.56,3.28.7,6.58,1.34Q449.93,840.16,445.3,864.16Z"/><path class="cls-1" d="M499.56,884.36q-3.81,0-7.6-.16.57-17.19,1.15-34.38c.17-5.19.42-9.36.56-13.73a105.48,105.48,0,0,1-3.6,13.7q-5.82,17.88-12.91,35.5-4.21-18.49-7.13-37.07a120.93,120.93,0,0,1-1.39-14.1c-.55,4.34-.9,8-1.61,13.65l-4.32,34.13q-3.78-.46-7.54-1l9.51-63c2.46.37,4.91.7,7.38,1q1.9,15.63,4.73,31.24a86.76,86.76,0,0,1,1.82,17c.78-5.24,2.28-10,4.61-16.55q5.25-15,9.6-30.11c2.44.09,4.89.15,7.33.17Q499.85,852.51,499.56,884.36Z"/><path class="cls-1" d="M569.31,874.75q-2.35,2.32-4.79,4.61c-1.41-.74-2.8-1.5-4.18-2.26a15,15,0,0,1-9.19,4.59c-13.95,2-20.12-9.06-22-30.4s1.14-32.95,11.94-34.55,17.19,8.38,21.87,29.39c2.36,10.85,2.74,19.44.54,25.54C565.43,872.72,567.36,873.74,569.31,874.75Zm-14-27.09c-3.58-18.6-8-26.15-13.47-25.32s-7.19,9.32-5,28.13,6.82,26.64,13.53,25.62a7.42,7.42,0,0,0,4.49-2.1q-3.55-2.09-7-4.24,2.36-2.19,4.65-4.41,2.33,1.41,4.7,2.79C557.89,863.85,557.16,857.41,555.33,847.66Z"/><path class="cls-1" d="M610.06,850c3.54,9.06-1.22,17.5-11.9,20.85s-19.14-1-21.45-10.43l-12-47.39q3.27-.82,6.51-1.72,6.6,23.43,13.21,46.88c1.72,6.23,6.42,9,12.15,7.24s8-6.77,5.84-12.86l-16.11-46c2.13-.74,4.25-1.5,6.36-2.3Z"/><path class="cls-1" d="M659.18,843.34q-4,2.28-8.1,4.44-5.58-6.54-11-13.18-6.3,3.24-12.73,6.15,1.88,8.36,3.57,16.76c-2.72,1.2-5.45,2.35-8.19,3.47q-4.89-32.43-12.78-64,3.38-1.57,6.71-3.25Q636.61,819.45,659.18,843.34Zm-22.63-13.17q-4.09-5.17-8.1-10.41a178.35,178.35,0,0,1-11-15.69,182.62,182.62,0,0,1,5.49,18.37q1.64,6.38,3.17,12.79Q631.35,832.82,636.55,830.17Z"/><path class="cls-1" d="M691.2,822.5q-11.6,8.61-23.8,16L634.27,784q2.94-1.78,5.84-3.66l31.54,48.82q8.24-5.33,16.19-11.23Z"/><path class="cls-1" d="M705.59,811.15q-3.37,2.82-6.81,5.54l-39.44-50.1c1.83-1.45,3.65-2.92,5.44-4.43Z"/><path class="cls-1" d="M695.67,739.69c-2.6,2.95-5.27,5.82-8,8.62L729.37,789q-3.12,3.22-6.32,6.34l-40.52-41.89q-4.15,4-8.46,7.88l-3.62-4.09a253.68,253.68,0,0,0,21.15-21.22Z"/><path class="cls-1" d="M714.23,706.43q11.28,15.74,21.19,32.79l22.19,16.37q-2.75,3.75-5.58,7.39l-21.56-16.91a374.45,374.45,0,0,1-37.15-12q2.49-2.87,4.92-5.84,7.85,3,15.88,5.63c5.5,1.84,10.55,3.46,14.07,5-2.42-3-5.49-7.54-8.59-12.25s-6.35-9.33-9.65-13.88Q712.13,709.63,714.23,706.43Z"/></g></svg>
