<svg xmlns="http://www.w3.org/2000/svg" width="762.04" height="850.52" viewBox="0 0 762.04 850.52"><defs><style>.cls-1{fill:#fff;}</style></defs><title>pilsner</title><g id="Layer_2" data-name="Layer 2"><path class="cls-1" d="M381,12.5A346.82,346.82,0,0,1,482,27.6,375.4,375.4,0,0,1,559,61c42.14,24.14,66.24,48.64,66.47,48.88l.31.31.32.29a284.56,284.56,0,0,1,60,75.69A329.8,329.8,0,0,1,716,262c12.07,46.41,11.08,81.77,11.07,82.11l-.43,12.41H750V504.37l-19.29,18.46-3.2,3.06-.45,4.42c-4.68,46.85-17.66,90.57-38.56,129.94a327.08,327.08,0,0,1-78.48,97.07c-62.87,53-144.2,82.18-229,82.18S214.9,810.32,152,757.32a327.08,327.08,0,0,1-78.48-97.07C52.64,620.88,39.67,577.16,35,530.31l-.44-4.42-3.2-3.06L12,504.37V356.5H35.47L35,344.09c0-.35-1.06-35.06,10.87-81.35a329.43,329.43,0,0,1,29.85-76.16A284.5,284.5,0,0,1,136,110.46l.32-.29.3-.3c.24-.25,24.33-24.75,66.48-48.89a375.4,375.4,0,0,1,77-33.38A346.8,346.8,0,0,1,381,12.5m0-12c-155,0-253,101-253,101-110,98-105,243-105,243H0v165l23,22c20,200,184,320,358,320s338-120,358-320l23-22v-165H739s5-145-105-243c0,0-98-101-253-101Z"/><path class="cls-1" d="M736.79,371V483.5H25.29V371h711.5m6-6H19.29V489.5h723.5V365Z"/><polygon class="cls-1" points="730.04 345.5 35.04 345.5 35.04 356.5 730.04 356.5 730.04 345.5 730.04 345.5"/><polygon class="cls-1" points="752.04 498.5 10.04 498.5 10.04 509.5 752.04 509.5 752.04 498.5 752.04 498.5"/><path class="cls-1" d="M600.15,509.5H587.64C574.75,699,387,700.5,381.18,700.5h-.27c-5.75,0-193.57-1.45-206.46-191H161.94S160.3,674.23,338.47,708.22a227.41,227.41,0,0,0,85.14,0c178.18-34,176.54-198.72,176.54-198.72Z"/><path class="cls-1" d="M613.81,509.5H608.2C594.81,717.36,389.31,720.94,381.29,721s-213.51-3.64-226.9-211.5h-5.62S145.05,712.21,381,727v0l.25,0,.25,0v0c236-14.76,232.27-217.47,232.27-217.47Z"/><path class="cls-1" d="M381,143.26a227.4,227.4,0,0,0-42.57,4C160.3,181.27,161.94,346,161.94,346h12.51c12.89-189.55,200.71-191,206.46-191h.27c5.77,0,193.57,1.46,206.46,191h12.51s1.64-164.73-176.54-198.72a227.25,227.25,0,0,0-42.57-4Z"/><path class="cls-1" d="M381.54,128.5l-.25,0-.25,0v0C145.05,143.29,148.77,346,148.77,346h5.62c13.39-207.86,218.89-211.44,226.9-211.5S594.81,138.14,608.2,346h5.61s3.73-202.71-232.27-217.47v0Z"/><path class="cls-1" d="M720.76,509.5h-5.18C697.84,821.37,391.22,827.87,381.29,828c-9.92-.13-316.54-6.63-334.28-318.5H41.83S31.06,800.22,381,834v0l.25,0,.25,0v0c350-33.73,339.22-324.45,339.22-324.45Z"/><path class="cls-1" d="M381,21.5Zm0,0Zm0,0h0Zm.12,0H381C31.06,55.23,41.83,346,41.83,346H47C64.75,34.13,371.37,27.63,381.29,27.5c9.93.13,316.55,6.63,334.29,318.5h5.18S732,55.23,382,21.5h-.91Zm-.1,0h0Zm0,0Zm0,0Zm0,0Zm0,0Zm0,0Zm0,0Zm0,0Zm0,0Zm0,0Zm0,0Zm0,0Z"/><polygon class="cls-1" points="35.37 509.5 17.04 509.5 34.54 526 35.37 509.5 35.37 509.5"/><polygon class="cls-1" points="745.37 509.5 727.04 509.5 727.87 526 745.37 509.5 745.37 509.5"/><polygon class="cls-1" points="165.04 514.5 33.04 514.5 33.04 526.5 165.04 526.5 165.04 514.5 165.04 514.5"/><polygon class="cls-1" points="167.04 532.5 34.04 532.5 34.04 542.5 167.04 542.5 167.04 532.5 167.04 532.5"/><polygon class="cls-1" points="171.04 550.5 37.04 550.5 37.04 558.5 171.04 558.5 171.04 550.5 171.04 550.5"/><polygon class="cls-1" points="177.04 568.5 40.04 568.5 40.04 574.5 177.04 574.5 177.04 568.5 177.04 568.5"/><polygon class="cls-1" points="184.04 585.5 44.04 585.5 44.04 591.5 184.04 591.5 184.04 585.5 184.04 585.5"/><polygon class="cls-1" points="192.04 603.5 49.04 603.5 49.04 607.5 192.04 607.5 192.04 603.5 192.04 603.5"/><polygon class="cls-1" points="203.04 621.5 55.04 621.5 55.04 623.5 203.04 623.5 203.04 621.5 203.04 621.5"/><polygon class="cls-1" points="730.04 514.5 598.04 514.5 598.04 526.5 730.04 526.5 730.04 514.5 730.04 514.5"/><polygon class="cls-1" points="729.04 532.5 596.04 532.5 596.04 542.5 729.04 542.5 729.04 532.5 729.04 532.5"/><polygon class="cls-1" points="726.04 550.5 592.04 550.5 592.04 558.5 726.04 558.5 726.04 550.5 726.04 550.5"/><polygon class="cls-1" points="723.04 568.5 586.04 568.5 586.04 574.5 723.04 574.5 723.04 568.5 723.04 568.5"/><polygon class="cls-1" points="719.04 585.5 579.04 585.5 579.04 591.5 719.04 591.5 719.04 585.5 719.04 585.5"/><polygon class="cls-1" points="714.04 603.5 571.04 603.5 571.04 607.5 714.04 607.5 714.04 603.5 714.04 603.5"/><polygon class="cls-1" points="708.04 621.5 560.04 621.5 560.04 623.5 708.04 623.5 708.04 621.5 708.04 621.5"/><polygon class="cls-1" points="730.04 328.5 598.04 328.5 598.04 340.5 730.04 340.5 730.04 328.5 730.04 328.5"/><polygon class="cls-1" points="729.04 312.5 596.04 312.5 596.04 322.5 729.04 322.5 729.04 312.5 729.04 312.5"/><polygon class="cls-1" points="726.04 296.5 592.04 296.5 592.04 304.5 726.04 304.5 726.04 296.5 726.04 296.5"/><polygon class="cls-1" points="723.04 280.5 586.04 280.5 586.04 286.5 723.04 286.5 723.04 280.5 723.04 280.5"/><polygon class="cls-1" points="719.04 263.5 579.04 263.5 579.04 269.5 719.04 269.5 719.04 263.5 719.04 263.5"/><polygon class="cls-1" points="714.04 247.5 571.04 247.5 571.04 251.5 714.04 251.5 714.04 247.5 714.04 247.5"/><polygon class="cls-1" points="708.04 231.5 560.04 231.5 560.04 233.5 708.04 233.5 708.04 231.5 708.04 231.5"/><polygon class="cls-1" points="163.04 328.5 31.04 328.5 31.04 340.5 163.04 340.5 163.04 328.5 163.04 328.5"/><polygon class="cls-1" points="165.04 312.5 32.04 312.5 32.04 322.5 165.04 322.5 165.04 312.5 165.04 312.5"/><polygon class="cls-1" points="169.04 296.5 35.04 296.5 35.04 304.5 169.04 304.5 169.04 296.5 169.04 296.5"/><polygon class="cls-1" points="175.04 280.5 38.04 280.5 38.04 286.5 175.04 286.5 175.04 280.5 175.04 280.5"/><polygon class="cls-1" points="182.04 263.5 42.04 263.5 42.04 269.5 182.04 269.5 182.04 263.5 182.04 263.5"/><polygon class="cls-1" points="190.04 247.5 47.04 247.5 47.04 251.5 190.04 251.5 190.04 247.5 190.04 247.5"/><polygon class="cls-1" points="201.04 231.5 53.04 231.5 53.04 233.5 201.04 233.5 201.04 231.5 201.04 231.5"/></g><g id="Layer_3" data-name="Layer 3"><path class="cls-1" d="M219.33,419.9c0,18.74-12.46,26.67-33.47,26.67h-3.5v18.75H153.52v-72.1h32.34C206.87,393.22,219.33,401.15,219.33,419.9Zm-27,0c0-4.43-2.68-6.59-7.83-6.59h-2.68v13.18h2.68C189.67,426.49,192.35,424.33,192.35,419.9Z"/><path class="cls-1" d="M254.46,465.32H224.79v-72.1h29.67Z"/><path class="cls-1" d="M319.24,465.32H262.29v-72.1H292v49h27.29Z"/><path class="cls-1" d="M390,441.73c0,18.85-14.83,24.72-33.06,24.72a92.3,92.3,0,0,1-34.5-6.59L330,439.57c11.33,4.33,20.6,5.87,26.36,5.87,3.81,0,4.53-.62,4.53-1.65,0-.82-.3-1.44-8.65-3.5-20.08-4.94-27.6-11-27.6-23.48,0-18.85,14.73-24.72,33.27-24.72a74.19,74.19,0,0,1,31.41,7l-8,20.09c-8.14-3.92-16.58-6.08-23.49-6.08-3.39,0-4,.72-4,1.65s0,1.65,7.62,3.5C380.63,422.89,390,428.86,390,441.73Z"/><path class="cls-1" d="M465.81,465.32H439.75l-8.13-13.8a122.54,122.54,0,0,1-9-18c.21,2.68.52,6.7.52,8.66v23.17h-27.4v-72.1h27.09L430,405c3,5,7.41,13.08,9,18-.21-2.47-.52-6.7-.52-8.65V393.22h27.4Z"/><path class="cls-1" d="M535.85,465.32H473.64v-72.1h62v20H502v6.18h24.1v19.68H502v6.28h33.88Z"/><path class="cls-1" d="M612.48,465.32h-31.1L571.08,443h-.21v22.35H542.55v-72.1h36.66c16.48,0,30.08,5,30.08,24.21,0,11.53-5.67,17.09-11.95,21Zm-30.79-46.86c0-4.23-2.79-6.29-8-6.29h-2.78v12.57h2.78C578.9,424.74,581.69,422.68,581.69,418.46Z"/></g><g id="Layer_6" data-name="Layer 6"><path class="cls-1" d="M321.2,49.13q-1.24,6.49-2.24,13c4.26,4.6,7.28,12.3,9.88,22.62,5.12,20.92,4.21,32.65-5.27,35.78a10.88,10.88,0,0,1-8-.21c-.06-.08.26,6.83.29,6.82-1.62.65-3.22,1.31-4.82,2q-.55-6.3-.84-12.67c-4.24-4.26-8.38-11.39-12.56-21.19-8.55-19.61-8.39-32.4,5-37a15.1,15.1,0,0,1,10.47-.14c.34-2.37.7-4.75,1.1-7.13Q317.67,50,321.2,49.13Zm-9.1,16.48c-2.58-2.44-5.24-3.13-7.92-2.23-6.52,2.22-6.86,11.41.12,29.18a100.54,100.54,0,0,0,5.59,12.38A314.62,314.62,0,0,1,312.1,65.61Zm9.86,21a85.91,85.91,0,0,0-4.57-12.79,310.38,310.38,0,0,0-2.06,39.09c2.41,2.41,4.56,3.18,6.62,2.49C326.84,113.76,327.18,105,322,86.61Z"/><path class="cls-1" d="M366,110.74a181.54,181.54,0,0,0-20.06,2.8q-6.18-31.25-12.34-62.49,4.06-.81,8.16-1.47l9.3,57.31q7.22-1.17,14.47-1.77C365.66,107,365.81,108.87,366,110.74Z"/><path class="cls-1" d="M393.79,110.59a181.7,181.7,0,0,0-20.21-.32Q372.31,78.46,371,46.62q4.14-.16,8.26-.19.18,29,.37,58.06,7.28,0,14.55.48C394.06,106.84,393.93,108.72,393.79,110.59Z"/><path class="cls-1" d="M423.34,115.21a180.88,180.88,0,0,0-21.95-3.91Q405,79.66,408.66,48a241.94,241.94,0,0,1,28.43,5q-.64,2.74-1.3,5.49Q426,56.16,416,54.68q-1.56,10.49-3.13,21,6.32.94,12.59,2.26c-.39,1.84-.77,3.68-1.16,5.52q-6.1-1.28-12.26-2.2l-3.78,25.29q8.23,1.23,16.38,3.21C424.22,111.56,423.78,113.38,423.34,115.21Z"/><path class="cls-1" d="M475.56,71.5q-6-2.59-12.16-4.87l-20.16,54.65c-1.94-.72-3.88-1.4-5.84-2l18.27-55.3q-6.18-2-12.45-3.74l1.43-5.27a244.39,244.39,0,0,1,33.08,11.57Q476.65,69,475.56,71.5Z"/><path class="cls-1" d="M176.59,667.1c-9.6,8.24-20.2,3.87-26.65-5.15-.8-1.11-1.59-2.23-2.38-3.36l-23.71,16.6q-2.67-3.84-5.27-7.79l53.24-35q3.24,4.94,6.65,9.65C184.41,650.31,185.52,659.45,176.59,667.1Zm-5.28-6c6-4.78,6.47-10.39,2.45-16-.79-1.09-1.57-2.19-2.35-3.3l-19.23,13.46q1.27,1.83,2.56,3.61C159.17,665.09,165.27,666,171.31,661.15Z"/><path class="cls-1" d="M173.47,731.12q-3.51-3.14-6.95-6.37,6.39-14.64,13.6-28.72a66.07,66.07,0,0,1-5.07-5l-21.67,20.55q-3.09-3.29-6.1-6.68l47.47-42.51q3.76,4.25,7.67,8.26c6.81,7,8.94,15.89,1.62,24.27-4.95,5.59-10.95,6.86-16.74,5.11Q179.92,715.25,173.47,731.12Zm24.62-41.07c5-5.34,4.75-10.88.14-15.62q-1.36-1.39-2.7-2.82L179,687.27c1,1,2,2.06,2.94,3.07C187,695.55,193.06,695.43,198.09,690.05Z"/><path class="cls-1" d="M206.38,756.66A309.72,309.72,0,0,1,181,737.59l40.7-49.08q9.41,7.85,19.39,14.63l-3.17,4.68q-7.28-5-14.26-10.45l-13.09,16.71q5.28,4.15,10.7,8L218,726.7q-5.53-3.94-10.91-8.18l-15.79,20.15q8.93,7,18.24,13.3Z"/><path class="cls-1" d="M254.51,783.24c-2.34-1-4.68-2.1-7-3.2l14.76-31.11c2.23-4.69,4.13-8.43,6-12.38a105.87,105.87,0,0,1-8.82,11.13q-12.56,14.05-26.2,27.35,3.44-18.72,8.09-37a121.21,121.21,0,0,1,4.31-13.54c-2.24,3.76-4,7-6.94,11.88q-8.82,14.79-17.63,29.58-3.36-2-6.66-4.08l34-54c2.15,1.36,4.33,2.68,6.52,4q-4.44,15.15-8,30.65a85.27,85.27,0,0,1-5.09,16.4c2.82-4.48,6.1-8.21,10.9-13.31q10.88-11.61,21-23.76c2.24,1.07,4.5,2.11,6.76,3.11Q267.48,754.12,254.51,783.24Z"/><path class="cls-1" d="M275.18,791.52c-2.66-.95-5.3-1.95-7.93-3l23.37-59.32q3.15,1.23,6.33,2.38Z"/><path class="cls-1" d="M326.34,790.16c-1.75,9.56-10.18,14.28-21,11.58s-15.79-10.8-12.78-20l14.71-46.63q3.22,1,6.46,1.92-6.7,23.41-13.42,46.83c-1.8,6.2.73,11,6.54,12.48s10.34-1.61,11.7-7.92q5.24-23.77,10.48-47.56c2.19.47,4.39.92,6.58,1.34Q331,766.16,326.34,790.16Z"/><path class="cls-1" d="M380.6,810.36c-2.53,0-5.06-.08-7.59-.16l1.14-34.38c.17-5.19.42-9.36.57-13.73a107.32,107.32,0,0,1-3.61,13.7q-5.81,17.88-12.91,35.5-4.2-18.49-7.12-37.07a121.12,121.12,0,0,1-1.4-14.1c-.55,4.34-.89,8-1.61,13.65l-4.32,34.13c-2.51-.31-5-.65-7.54-1q4.77-31.5,9.52-63,3.67.55,7.37,1,1.9,15.63,4.73,31.24a86.76,86.76,0,0,1,1.82,17c.79-5.24,2.28-10,4.62-16.55q5.25-15,9.6-30.11,3.66.13,7.32.17Q380.91,778.51,380.6,810.36Z"/><path class="cls-1" d="M450.36,800.75q-2.37,2.32-4.8,4.61c-1.4-.74-2.79-1.5-4.18-2.26a15,15,0,0,1-9.18,4.59c-13.95,2-20.12-9.06-22-30.4s1.15-32.95,11.95-34.55,17.19,8.38,21.87,29.39c2.36,10.85,2.73,19.44.54,25.54C446.47,798.72,448.4,799.74,450.36,800.75Zm-14-27.09c-3.58-18.6-8-26.15-13.46-25.32s-7.19,9.32-5,28.13,6.81,26.64,13.52,25.62A7.45,7.45,0,0,0,436,800q-3.56-2.09-7-4.24c1.58-1.46,3.12-2.93,4.65-4.41q2.32,1.41,4.7,2.79C438.93,789.85,438.21,783.41,436.37,773.66Z"/><path class="cls-1" d="M491.11,776c3.54,9.06-1.22,17.5-11.91,20.85s-19.14-1-21.44-10.43l-12-47.39q3.25-.82,6.5-1.72,6.62,23.43,13.21,46.88c1.73,6.23,6.42,9,12.16,7.24s8-6.77,5.83-12.86l-16.11-46c2.13-.74,4.25-1.5,6.36-2.3Z"/><path class="cls-1" d="M540.23,769.34q-4,2.28-8.11,4.44-5.57-6.54-11-13.18-6.3,3.24-12.72,6.15,1.88,8.36,3.56,16.76c-2.71,1.2-5.44,2.35-8.19,3.47q-4.89-32.43-12.77-64c2.25-1,4.48-2.13,6.71-3.25Q517.64,745.45,540.23,769.34ZM517.6,756.17q-4.11-5.17-8.11-10.41a182.69,182.69,0,0,1-11-15.69,180,180,0,0,1,5.5,18.37q1.64,6.38,3.16,12.79Q512.39,758.82,517.6,756.17Z"/><path class="cls-1" d="M572.24,748.5q-11.6,8.61-23.79,16L515.31,710q2.94-1.78,5.84-3.66,15.78,24.4,31.54,48.82,8.23-5.33,16.2-11.23Q570.56,746.24,572.24,748.5Z"/><path class="cls-1" d="M586.64,737.15q-3.37,2.82-6.81,5.54l-39.44-50.1c1.83-1.45,3.64-2.92,5.44-4.43Z"/><path class="cls-1" d="M576.72,665.69q-3.91,4.42-8,8.62L610.42,715c-2.09,2.15-4.19,4.26-6.33,6.34l-40.51-41.89q-4.17,4-8.46,7.88l-3.62-4.09a253.57,253.57,0,0,0,21.14-21.22Z"/><path class="cls-1" d="M595.27,632.43q11.28,15.74,21.2,32.79l22.19,16.37q-2.76,3.75-5.59,7.39l-21.56-16.91a375.3,375.3,0,0,1-37.15-12q2.49-2.87,4.92-5.84,7.86,3,15.89,5.63c5.49,1.84,10.55,3.46,14.06,5-2.42-3-5.49-7.54-8.58-12.25s-6.36-9.33-9.66-13.88Q593.17,635.63,595.27,632.43Z"/></g></svg>
