<svg xmlns="http://www.w3.org/2000/svg" width="762.04" height="850.76" viewBox="0 0 762.04 850.76"><defs><style>.cls-1{fill:#fff;}</style></defs><title>stout</title><g id="Layer_2" data-name="Layer 2"><path class="cls-1" d="M381,12.26A346.82,346.82,0,0,1,482,27.36a375.4,375.4,0,0,1,77,33.38c42.14,24.14,66.24,48.64,66.47,48.88l.31.31.32.29a284.56,284.56,0,0,1,60,75.69A329.8,329.8,0,0,1,716,261.74c12.07,46.41,11.08,81.77,11.07,82.11l-.43,12.41H750V504.13l-19.29,18.46-3.2,3.06-.45,4.42c-4.68,46.85-17.66,90.57-38.56,129.94a327.12,327.12,0,0,1-78.48,97.08c-62.87,53-144.2,82.17-229,82.17S214.9,810.08,152,757.09A327.12,327.12,0,0,1,73.55,660C52.64,620.64,39.67,576.92,35,530.07l-.44-4.42-3.2-3.06L12,504.13V356.26H35.47L35,343.85c0-.35-1.06-35.06,10.87-81.34a329.51,329.51,0,0,1,29.85-76.17A284.5,284.5,0,0,1,136,110.22l.32-.29.3-.3c.24-.25,24.33-24.75,66.48-48.89a375.4,375.4,0,0,1,77-33.38A346.8,346.8,0,0,1,381,12.26m0-12c-155,0-253,101-253,101-110,98-105,243-105,243H0v165l23,22c20,200,184,320,358,320s338-120,358-320l23-22v-165H739s5-145-105-243c0,0-98-101-253-101Z"/><path class="cls-1" d="M736.79,370.76v112.5H25.29V370.76h711.5m6-6H19.29v124.5h723.5V364.76Z"/><polygon class="cls-1" points="730.04 345.26 35.04 345.26 35.04 356.26 730.04 356.26 730.04 345.26 730.04 345.26"/><polygon class="cls-1" points="752.04 498.26 10.04 498.26 10.04 509.26 752.04 509.26 752.04 498.26 752.04 498.26"/><path class="cls-1" d="M600.15,509.26H587.64c-12.89,189.54-200.69,191-206.46,191h-.27c-5.75,0-193.57-1.45-206.46-191H161.94S160.3,674,338.47,708a227.41,227.41,0,0,0,85.14,0c178.18-34,176.54-198.72,176.54-198.72Z"/><path class="cls-1" d="M613.81,509.26H608.2C594.81,717.13,389.31,720.7,381.29,720.76s-213.51-3.63-226.9-211.5h-5.62S145.05,712,381,726.73v0l.25,0,.25,0v0c236-14.76,232.27-217.47,232.27-217.47Z"/><path class="cls-1" d="M381,143a227.4,227.4,0,0,0-42.57,4C160.3,181,161.94,345.76,161.94,345.76h12.51c12.89-189.55,200.71-191,206.46-191h.27c5.77,0,193.57,1.46,206.46,191h12.51S601.79,181,423.61,147A227.25,227.25,0,0,0,381,143Z"/><path class="cls-1" d="M381.54,128.26l-.25,0-.25,0v0c-236,14.76-232.27,217.47-232.27,217.47h5.62c13.39-207.86,218.89-211.44,226.9-211.5s213.52,3.64,226.91,211.5h5.61s3.73-202.71-232.27-217.47v0Z"/><path class="cls-1" d="M720.76,509.26h-5.18c-17.74,311.87-324.36,318.37-334.29,318.5-9.92-.13-316.54-6.63-334.28-318.5H41.83S31.06,800,381,833.71v0l.25,0,.25,0v0c350-33.73,339.22-324.45,339.22-324.45Z"/><path class="cls-1" d="M381,21.26Zm0,0Zm0,0h0Zm.12,0H381C31.06,55,41.83,345.76,41.83,345.76H47C64.75,33.89,371.37,27.39,381.29,27.26c9.93.13,316.55,6.63,334.29,318.5h5.18S732,55,382,21.26h-.91Zm-.1,0h0Zm0,0Zm0,0Zm0,0Zm0,0Zm0,0Zm0,0Zm0,0Zm0,0Zm0,0Zm0,0Zm0,0Z"/><polygon class="cls-1" points="35.37 509.26 17.04 509.26 34.54 525.76 35.37 509.26 35.37 509.26"/><polygon class="cls-1" points="745.37 509.26 727.04 509.26 727.87 525.76 745.37 509.26 745.37 509.26"/><polygon class="cls-1" points="165.04 514.26 33.04 514.26 33.04 526.26 165.04 526.26 165.04 514.26 165.04 514.26"/><polygon class="cls-1" points="167.04 532.26 34.04 532.26 34.04 542.26 167.04 542.26 167.04 532.26 167.04 532.26"/><polygon class="cls-1" points="171.04 550.26 37.04 550.26 37.04 558.26 171.04 558.26 171.04 550.26 171.04 550.26"/><polygon class="cls-1" points="177.04 568.26 40.04 568.26 40.04 574.26 177.04 574.26 177.04 568.26 177.04 568.26"/><polygon class="cls-1" points="184.04 585.26 44.04 585.26 44.04 591.26 184.04 591.26 184.04 585.26 184.04 585.26"/><polygon class="cls-1" points="192.04 603.26 49.04 603.26 49.04 607.26 192.04 607.26 192.04 603.26 192.04 603.26"/><polygon class="cls-1" points="203.04 621.26 55.04 621.26 55.04 623.26 203.04 623.26 203.04 621.26 203.04 621.26"/><polygon class="cls-1" points="730.04 514.26 598.04 514.26 598.04 526.26 730.04 526.26 730.04 514.26 730.04 514.26"/><polygon class="cls-1" points="729.04 532.26 596.04 532.26 596.04 542.26 729.04 542.26 729.04 532.26 729.04 532.26"/><polygon class="cls-1" points="726.04 550.26 592.04 550.26 592.04 558.26 726.04 558.26 726.04 550.26 726.04 550.26"/><polygon class="cls-1" points="723.04 568.26 586.04 568.26 586.04 574.26 723.04 574.26 723.04 568.26 723.04 568.26"/><polygon class="cls-1" points="719.04 585.26 579.04 585.26 579.04 591.26 719.04 591.26 719.04 585.26 719.04 585.26"/><polygon class="cls-1" points="714.04 603.26 571.04 603.26 571.04 607.26 714.04 607.26 714.04 603.26 714.04 603.26"/><polygon class="cls-1" points="708.04 621.26 560.04 621.26 560.04 623.26 708.04 623.26 708.04 621.26 708.04 621.26"/><polygon class="cls-1" points="730.04 328.26 598.04 328.26 598.04 340.26 730.04 340.26 730.04 328.26 730.04 328.26"/><polygon class="cls-1" points="729.04 312.26 596.04 312.26 596.04 322.26 729.04 322.26 729.04 312.26 729.04 312.26"/><polygon class="cls-1" points="726.04 296.26 592.04 296.26 592.04 304.26 726.04 304.26 726.04 296.26 726.04 296.26"/><polygon class="cls-1" points="723.04 280.26 586.04 280.26 586.04 286.26 723.04 286.26 723.04 280.26 723.04 280.26"/><polygon class="cls-1" points="719.04 263.26 579.04 263.26 579.04 269.26 719.04 269.26 719.04 263.26 719.04 263.26"/><polygon class="cls-1" points="714.04 247.26 571.04 247.26 571.04 251.26 714.04 251.26 714.04 247.26 714.04 247.26"/><polygon class="cls-1" points="708.04 231.26 560.04 231.26 560.04 233.26 708.04 233.26 708.04 231.26 708.04 231.26"/><polygon class="cls-1" points="163.04 328.26 31.04 328.26 31.04 340.26 163.04 340.26 163.04 328.26 163.04 328.26"/><polygon class="cls-1" points="165.04 312.26 32.04 312.26 32.04 322.26 165.04 322.26 165.04 312.26 165.04 312.26"/><polygon class="cls-1" points="169.04 296.26 35.04 296.26 35.04 304.26 169.04 304.26 169.04 296.26 169.04 296.26"/><polygon class="cls-1" points="175.04 280.26 38.04 280.26 38.04 286.26 175.04 286.26 175.04 280.26 175.04 280.26"/><polygon class="cls-1" points="182.04 263.26 42.04 263.26 42.04 269.26 182.04 269.26 182.04 263.26 182.04 263.26"/><polygon class="cls-1" points="190.04 247.26 47.04 247.26 47.04 251.26 190.04 251.26 190.04 247.26 190.04 247.26"/><polygon class="cls-1" points="201.04 231.26 53.04 231.26 53.04 233.26 201.04 233.26 201.04 231.26 201.04 231.26"/></g><g id="Layer_3" data-name="Layer 3"><path class="cls-1" d="M268.31,441.49c0,18.85-14.83,24.72-33.06,24.72a92.35,92.35,0,0,1-34.51-6.59l7.52-20.29c11.33,4.33,20.6,5.87,26.37,5.87,3.81,0,4.53-.62,4.53-1.65,0-.82-.31-1.44-8.65-3.5-20.08-4.94-27.6-11-27.6-23.48,0-18.85,14.73-24.72,33.27-24.72a74.22,74.22,0,0,1,31.41,7l-8,20.09c-8.14-3.92-16.59-6.08-23.49-6.08-3.4,0-4,.72-4,1.65s0,1.65,7.62,3.5C258.94,422.65,268.31,428.62,268.31,441.49Z"/><path class="cls-1" d="M336,416.05H317.85v49H288.19v-49H270.06V393H336Z"/><path class="cls-1" d="M411.69,429c0,26.47-16.48,37.18-36.88,37.18S337.94,455.5,337.94,429s16.48-37.18,36.87-37.18S411.69,402.56,411.69,429Zm-28.84,0c0-13.08-3.81-16.07-8-16.07s-8,3-8,16.07,3.81,16.07,8,16.07S382.85,442.11,382.85,429Z"/><path class="cls-1" d="M488.63,433.25c0,23.38-10.82,33-35.54,33s-35.53-9.58-35.53-33V393h29.66V434.8c0,5.56,1.44,8.55,5.87,8.55s5.87-3,5.87-8.55V393h29.67Z"/><path class="cls-1" d="M560,416.05H541.88v49H512.21v-49H494.09V393H560Z"/></g><g id="Layer_6" data-name="Layer 6"><path class="cls-1" d="M321.2,48.89c-.83,4.33-1.58,8.67-2.24,13,4.26,4.6,7.28,12.31,9.88,22.63,5.12,20.91,4.21,32.64-5.27,35.77a10.88,10.88,0,0,1-8-.21c-.06-.08.26,6.83.29,6.82-1.62.65-3.22,1.31-4.82,2q-.55-6.3-.84-12.67C306,112,301.81,104.83,297.63,95c-8.55-19.61-8.39-32.4,5-37a15.1,15.1,0,0,1,10.47-.14c.34-2.37.7-4.75,1.1-7.12C316.5,50.09,318.85,49.48,321.2,48.89Zm-9.1,16.48c-2.58-2.44-5.24-3.13-7.92-2.23-6.52,2.22-6.86,11.41.12,29.18a100.54,100.54,0,0,0,5.59,12.38A314.72,314.72,0,0,1,312.1,65.37Zm9.86,21a85.91,85.91,0,0,0-4.57-12.79,310.48,310.48,0,0,0-2.06,39.09c2.41,2.41,4.56,3.18,6.62,2.49C326.84,113.52,327.18,104.77,322,86.37Z"/><path class="cls-1" d="M366,110.5a181.54,181.54,0,0,0-20.06,2.8q-6.18-31.24-12.34-62.49,4.06-.81,8.16-1.47l9.3,57.31q7.22-1.17,14.47-1.77C365.66,106.75,365.81,108.63,366,110.5Z"/><path class="cls-1" d="M393.79,110.36a179.32,179.32,0,0,0-20.21-.33Q372.31,78.21,371,46.38q4.14-.16,8.26-.19.18,29,.37,58.06,7.28,0,14.55.48C394.06,106.6,393.93,108.48,393.79,110.36Z"/><path class="cls-1" d="M423.34,115a180.88,180.88,0,0,0-21.95-3.91q3.63-31.64,7.27-63.28a241.94,241.94,0,0,1,28.43,5q-.64,2.75-1.3,5.49Q426,55.93,416,54.44q-1.56,10.49-3.13,21,6.32.95,12.59,2.26c-.39,1.84-.77,3.69-1.16,5.53q-6.1-1.29-12.26-2.21l-3.78,25.3q8.23,1.23,16.38,3.2C424.22,111.32,423.78,113.14,423.34,115Z"/><path class="cls-1" d="M475.56,71.26q-6-2.6-12.16-4.87L443.24,121c-1.94-.72-3.88-1.4-5.84-2.05l18.27-55.3q-6.18-2-12.45-3.74l1.43-5.27a244.39,244.39,0,0,1,33.08,11.57Q476.65,68.76,475.56,71.26Z"/><path class="cls-1" d="M176.59,666.86c-9.6,8.24-20.2,3.87-26.65-5.15-.8-1.11-1.59-2.23-2.38-3.36L123.85,675q-2.67-3.84-5.27-7.79l53.24-35q3.24,4.93,6.65,9.65C184.41,650.08,185.52,659.21,176.59,666.86Zm-5.28-6c6-4.78,6.47-10.39,2.45-15.95-.79-1.1-1.57-2.2-2.35-3.31l-19.23,13.47q1.27,1.82,2.56,3.6C159.17,664.85,165.27,665.73,171.31,660.91Z"/><path class="cls-1" d="M173.47,730.88q-3.51-3.14-6.95-6.37,6.39-14.64,13.6-28.72a66.07,66.07,0,0,1-5.07-5l-21.67,20.55q-3.09-3.29-6.1-6.68l47.47-42.51q3.76,4.25,7.67,8.26c6.81,7,8.94,15.89,1.62,24.27-4.95,5.59-10.95,6.86-16.74,5.11Q179.92,715,173.47,730.88Zm24.62-41.07c5-5.34,4.75-10.88.14-15.62q-1.36-1.4-2.7-2.82L179,687c1,1,2,2.06,2.94,3.07C187,695.32,193.06,695.19,198.09,689.81Z"/><path class="cls-1" d="M206.38,756.42A307.46,307.46,0,0,1,181,737.35l40.7-49.08q9.41,7.85,19.39,14.63l-3.17,4.68q-7.28-5-14.26-10.44l-13.09,16.7q5.28,4.15,10.7,8L218,726.46q-5.53-3.94-10.91-8.17-7.91,10.07-15.79,20.14,8.93,7,18.24,13.3Z"/><path class="cls-1" d="M254.51,783q-3.51-1.54-7-3.2l14.76-31.11c2.23-4.69,4.13-8.43,6-12.38a105.87,105.87,0,0,1-8.82,11.13q-12.56,14.05-26.2,27.35,3.44-18.72,8.09-37a121.21,121.21,0,0,1,4.31-13.54c-2.24,3.76-4,7-6.94,11.88q-8.82,14.79-17.63,29.58-3.36-2-6.66-4.08l34-54c2.15,1.36,4.33,2.68,6.52,4q-4.44,15.15-8,30.65a85.27,85.27,0,0,1-5.09,16.4c2.82-4.48,6.1-8.21,10.9-13.31q10.88-11.61,21-23.76c2.24,1.07,4.5,2.11,6.76,3.11Z"/><path class="cls-1" d="M275.18,791.28c-2.66-.95-5.3-1.95-7.93-3L290.62,729q3.15,1.23,6.33,2.38Z"/><path class="cls-1" d="M326.34,789.92c-1.75,9.56-10.18,14.28-21,11.58s-15.79-10.8-12.78-20l14.71-46.63q3.22,1,6.46,1.92-6.7,23.41-13.42,46.83c-1.8,6.2.73,11,6.54,12.48s10.34-1.61,11.7-7.92q5.24-23.77,10.48-47.56c2.19.47,4.39.92,6.58,1.34Q331,765.92,326.34,789.92Z"/><path class="cls-1" d="M380.6,810.12c-2.53,0-5.06-.08-7.59-.16l1.14-34.38c.17-5.19.42-9.36.57-13.73a107.86,107.86,0,0,1-3.61,13.71q-5.81,17.87-12.91,35.49Q354,792.56,351.08,774a121.12,121.12,0,0,1-1.4-14.1c-.55,4.34-.89,8-1.61,13.65l-4.32,34.13c-2.51-.31-5-.65-7.54-1q4.77-31.5,9.52-63,3.67.55,7.37,1,1.9,15.63,4.73,31.24a86.76,86.76,0,0,1,1.82,17c.79-5.24,2.28-9.95,4.62-16.55q5.25-15,9.6-30.11,3.66.13,7.32.17Q380.91,778.27,380.6,810.12Z"/><path class="cls-1" d="M450.36,800.51q-2.37,2.32-4.8,4.61c-1.4-.74-2.79-1.5-4.18-2.26a15,15,0,0,1-9.18,4.59c-13.95,2-20.12-9.06-22-30.4s1.15-32.95,11.95-34.54,17.19,8.37,21.87,29.38c2.36,10.85,2.73,19.44.54,25.54C446.47,798.48,448.4,799.5,450.36,800.51Zm-14-27.09c-3.58-18.6-8-26.15-13.46-25.32s-7.19,9.32-5,28.13,6.81,26.64,13.52,25.62a7.45,7.45,0,0,0,4.5-2.1q-3.56-2.09-7-4.24c1.58-1.46,3.12-2.93,4.65-4.41q2.32,1.41,4.7,2.79C438.93,789.61,438.21,783.17,436.37,773.42Z"/><path class="cls-1" d="M491.11,775.76c3.54,9.06-1.22,17.5-11.91,20.85s-19.14-1-21.44-10.43l-12-47.39q3.25-.82,6.5-1.72,6.62,23.45,13.21,46.88c1.73,6.23,6.42,9,12.16,7.24s8-6.77,5.83-12.86l-16.11-46q3.19-1.1,6.36-2.3Z"/><path class="cls-1" d="M540.23,769.1q-4,2.28-8.11,4.44-5.57-6.54-11-13.18-6.3,3.24-12.72,6.15,1.88,8.36,3.56,16.76c-2.71,1.2-5.44,2.35-8.19,3.47q-4.89-32.43-12.77-64c2.25-1,4.48-2.13,6.71-3.25Q517.64,745.21,540.23,769.1ZM517.6,755.93q-4.11-5.17-8.11-10.41a182.69,182.69,0,0,1-11-15.69A180,180,0,0,1,504,748.2q1.64,6.38,3.16,12.79Q512.39,758.58,517.6,755.93Z"/><path class="cls-1" d="M572.24,748.26q-11.6,8.61-23.79,16l-33.14-54.49q2.94-1.78,5.84-3.66,15.78,24.4,31.54,48.82,8.23-5.33,16.2-11.23Q570.56,746,572.24,748.26Z"/><path class="cls-1" d="M586.64,736.91q-3.37,2.83-6.81,5.54l-39.44-50.1c1.83-1.45,3.64-2.92,5.44-4.43Z"/><path class="cls-1" d="M576.72,665.45q-3.91,4.42-8,8.62l41.68,40.72c-2.09,2.15-4.19,4.27-6.33,6.34l-40.51-41.89q-4.17,4.05-8.46,7.88L551.5,683a252.06,252.06,0,0,0,21.14-21.22Z"/><path class="cls-1" d="M595.27,632.19q11.28,15.73,21.2,32.79l22.19,16.37q-2.76,3.75-5.59,7.39l-21.56-16.9a378,378,0,0,1-37.15-12q2.49-2.86,4.92-5.84,7.86,3,15.89,5.63c5.49,1.84,10.55,3.46,14.06,5-2.42-3-5.49-7.54-8.58-12.25s-6.36-9.33-9.66-13.88C592.44,636.43,593.87,634.33,595.27,632.19Z"/></g></svg>
